<?xml version="1.0" encoding="utf-8"?>
<!-- Generator: Adobe Illustrator 24.0.2, SVG Export Plug-In . SVG Version: 6.00 Build 0)  -->
<svg version="1.1" id="b759170a-51c3-4e2f-999d-77dec9fd6d11"
	 xmlns="http://www.w3.org/2000/svg" xmlns:xlink="http://www.w3.org/1999/xlink" x="0px" y="0px" viewBox="0 0 1140.6 787.3"
	 style="enable-background:new 0 0 1140.6 787.3;" xml:space="preserve">
<style type="text/css">
	.st0{fill:#F2F2F2;stroke:#023149;stroke-width:2.7283;stroke-miterlimit:10;}
	.st1{fill:#023149;}
	.st2{fill:#D8D8D8;}
	.st3{opacity:0.5;fill:#8CD978;}
	.st4{fill:#F4F4F4;stroke:#4D4A4B;stroke-width:2.5;stroke-miterlimit:10;}
	.st5{fill:none;stroke:#4D4A4B;stroke-width:0.9574;stroke-miterlimit:10;}
	.st6{fill:#04B4C0;stroke:#023149;stroke-width:2.5;stroke-miterlimit:10;}
	.st7{fill:#F6D588;stroke:#023149;stroke-width:2.5;stroke-miterlimit:10;}
	.st8{fill:none;stroke:#4D4A4B;stroke-width:2.5;stroke-miterlimit:10;}
	.st9{fill:#FFFFFF;stroke:#4D4A4B;stroke-width:2.5;stroke-miterlimit:10;}
	.st10{fill:none;stroke:#023149;stroke-width:2.5;stroke-miterlimit:10;}
	.st11{fill:#F45454;stroke:#023149;stroke-width:2.5;stroke-miterlimit:10;}
	.st12{fill:#8CD978;stroke:#023149;stroke-width:2.5;stroke-miterlimit:10;}
	.st13{opacity:0.2;fill:#04B4C0;}
	.st14{opacity:0.2;fill:#014167;}
	.st15{fill:#D8D8D8;stroke:#023149;stroke-width:2.5;stroke-miterlimit:10;}
	.st16{fill:#9B9B9A;stroke:#023149;stroke-width:2.5;stroke-miterlimit:10;}
	.st17{opacity:0.29;fill:#F4F4F4;}
	.st18{fill:#F4F4F4;}
	.st19{fill:#C4C4C4;}
	.st20{fill:#F7B033;stroke:#023149;stroke-width:2.5;stroke-miterlimit:10;}
	.st21{fill:none;stroke:#FFFFFF;stroke-width:2;stroke-miterlimit:10;}
</style>
<title>maker launch</title>
<g>
	<g>
		<polygon class="st0" points="1013.8,678.4 138.3,678.4 211,611.2 912.7,611.2 		"/>
		<rect x="138.3" y="678.3" class="st1" width="876.3" height="14.5"/>
		<ellipse class="st2" cx="499.1" cy="654.8" rx="37.2" ry="8.9"/>
		<ellipse class="st2" cx="424.5" cy="635.7" rx="14.3" ry="6.1"/>
	</g>
	<circle class="st3" cx="415.1" cy="302.5" r="202.3"/>
	<g>
		<path class="st4" d="M212.4,638.9l31.7-21.4h131.8l1.1,1.2c4.3,4.5,5.1,11.4,1.9,16.7l0,0l-31.8,23.6"/>
		<g>
			<path class="st4" d="M371.2,645.6c-0.7,0-1.2-0.5-1.2-1.2c0-0.7,0.5-1.2,1.2-1.2c6.7,0,12.1-5.4,12.1-12.1
				c0-6.7-5.4-12.1-12.1-12.1c-0.8,0-1.7,0.1-2.5,0.3c-0.6,0.1-1.3-0.3-1.4-0.9c-0.1-0.7,0.3-1.3,0.9-1.4c1-0.2,2-0.3,3-0.3
				c8,0,14.5,6.5,14.5,14.5C385.7,639.1,379.2,645.6,371.2,645.6z"/>
		</g>
		<path class="st4" d="M341.3,660.3H212.4l0.6-0.9c4.5-6.2,4.2-14.6-0.6-20.5l0,0h128.9c5.9,0,10.7,4.8,10.7,10.7l0,0
			C351.9,655.5,347.2,660.3,341.3,660.3z"/>
		<g>
			<path class="st4" d="M360.7,653.3c-0.7,0-1.2-0.5-1.2-1.2s0.5-1.2,1.2-1.2c6.7,0,12.1-5.4,12.1-12.1c0-6.7-5.4-12.1-12.1-12.1
				c-0.8,0-1.7,0.1-2.5,0.3c-0.6,0.1-1.3-0.3-1.4-0.9c-0.1-0.7,0.3-1.3,0.9-1.4c1-0.2,2-0.3,3-0.3c8,0,14.5,6.5,14.5,14.5
				C375.2,646.8,368.7,653.3,360.7,653.3z"/>
		</g>
		<g>
			<path class="st4" d="M348.5,660.7c-0.7,0-1.2-0.5-1.2-1.2c0-0.7,0.5-1.2,1.2-1.2c6.7,0,12.1-5.4,12.1-12.1
				c0-6.7-5.4-12.1-12.1-12.1c-0.8,0-1.7,0.1-2.5,0.3c-0.6,0.1-1.3-0.3-1.4-0.9c-0.1-0.7,0.3-1.3,0.9-1.4c1-0.2,2-0.3,3-0.3
				c8,0,14.5,6.5,14.5,14.5S356.4,660.7,348.5,660.7z"/>
		</g>
		<line class="st5" x1="215.3" y1="643.2" x2="349.2" y2="643.2"/>
		<line class="st5" x1="215.3" y1="647.4" x2="351.3" y2="647.4"/>
		<line class="st5" x1="215.3" y1="651.5" x2="351.7" y2="651.5"/>
		<line class="st5" x1="215.3" y1="655.7" x2="349.2" y2="655.7"/>
	</g>
	<g>
		<g>
			<path class="st6" d="M541.5,330.2c0,0-20.5,1.8-36.4,5.9c-15.9,4.1-45,18.6-45,18.6l13.2,97.7l7.7,158.2h246.4l21.4-149.6
				l2.3-119.1c0,0-30-5.5-49.1-7.7c-19.1-2.3-30.5-1.4-30.5-1.4L541.5,330.2z"/>
			<path class="st7" d="M644.7,303.9c0,0,4.5,14.1,11.8,21.4c7.3,7.3,15,7.7,15,7.7s-12.7,50.9-70,50c-50.5-0.8-60-52.7-60-52.7
				s16.4,0.5,21.4-7.7c5-8.2,3.2-17.7,3.2-17.7L644.7,303.9z"/>
			<path class="st8" d="M535.2,330.7c0,0,0.9,34.1,33.6,52.7c32.7,18.6,73.9,4.9,86.4-6.4c19.5-17.7,24.1-44.6,24.1-44.6"/>
			<path class="st1" d="M562.9,322.5c0,0,15,28.2,25.9,32.7c10.9,4.5,32.7,4.5,40.9-0.9c8.2-5.5,22.7-32.7,22.7-32.7l-7.7-17.7
				l-78.6,0.9c0,0,0.9,5.9,0,10.5C565.2,319.8,562.9,322.5,562.9,322.5z"/>
			<line class="st8" x1="536.5" y1="339.3" x2="543.3" y2="337"/>
			<line class="st8" x1="539.2" y1="347.5" x2="546.1" y2="344.8"/>
			<line class="st8" x1="543.8" y1="359.3" x2="552" y2="355.7"/>
			<line class="st8" x1="552.9" y1="368.9" x2="558.3" y2="365.2"/>
			<line class="st8" x1="560.6" y1="378.4" x2="566.1" y2="373"/>
			<line class="st8" x1="570.2" y1="383.4" x2="575.6" y2="378"/>
			<line class="st8" x1="584.7" y1="389.8" x2="587.9" y2="382"/>
			<line class="st8" x1="596.5" y1="392" x2="597" y2="383.4"/>
			<line class="st8" x1="611.1" y1="392.5" x2="610.2" y2="383.9"/>
			<line class="st8" x1="623.3" y1="391.1" x2="620.2" y2="381.6"/>
			<line class="st8" x1="637" y1="387.5" x2="633.3" y2="377"/>
			<line class="st8" x1="646.5" y1="382.5" x2="641.1" y2="373.4"/>
			<line class="st8" x1="655.6" y1="376.1" x2="649.3" y2="368.9"/>
			<line class="st8" x1="662.4" y1="368.4" x2="655.6" y2="362.5"/>
			<line class="st8" x1="667.4" y1="362" x2="661.1" y2="356.6"/>
			<line class="st8" x1="672.4" y1="352" x2="666.1" y2="348"/>
			<line class="st8" x1="676.5" y1="341.6" x2="668.4" y2="340.2"/>
		</g>
		<path class="st6" d="M751.1,342c0,0,30.5,21.8,45.9,48.6c15.5,26.8,29.1,55.5,29.1,55.5s-28.2,18.6-46.4,25
			c-18.2,6.4-33.6,7.3-33.6,7.3s-3.6-40.9-2.3-74.1C745.2,371.1,751.1,342,751.1,342z"/>
		<g>
			<path class="st6" d="M460.1,354.8c0,0,15,29.5,20.5,58.2c5.5,28.6-6.4,52.7-6.4,52.7l-29.1,53.6c0,0-10-17.7-27.3-28.2
				c-17.3-10.5-39.1-11.8-39.1-11.8s18.2-50,34.5-78.2C429.7,373,460.1,354.8,460.1,354.8z"/>
			<path class="st7" d="M445.1,519.3c0,0-21.4,38.2-36.8,55c-15.5,16.8-35,25.9-35,25.9s11.4-15,4.5-36.8c-6.8-21.8-25-29.5-25-29.5
				l25.9-54.6c0,0,25.5,2.3,39.1,11.8C431.5,500.7,445.1,519.3,445.1,519.3z"/>
			<path class="st7" d="M294.7,604.2c0,0,27.3,5.2,47.9,3c20.6-2.1,30.8-7,30.8-7s10.6-18.7,4.5-36.8c-7.4-22.3-25-29.5-25-29.5
				s-12.1,0.9-21.5,7.3c-9.4,6.4-31.5,13.9-40.6,13.6c-9.1-0.3-14.5-2.4-14.5-2.4s-3.6,23,2.7,33.9
				C285.3,597.2,294.7,604.2,294.7,604.2z"/>
			<path class="st7" d="M294.1,560.6c0,0,13.9-5.2,19.1-3.6c5.2,1.5,7.9,10.6,8.8,15.8c0.9,5.2,7.9,18.2,6.1,20
				c-1.8,1.8-6.4,1.2-10.6-1.2s-8.2-12.1-8.2-12.1L294.1,560.6z"/>
			<path class="st9" d="M243.4,510.3l79.8,104.8l12.4,6.1l-3.9-12.1l-79.8-105.2c-1.7-2.2-4.8-2.8-7.1-1.3v0
				C242.1,504.3,241.4,507.8,243.4,510.3z"/>
			<path class="st8" d="M382.4,473.9c0,0,21.4-1.8,39.1,10s25.9,28.2,25.9,28.2"/>
			<path class="st7" d="M272.5,547.5c0,0-7.9-0.6-11.2,0.6c-3.3,1.2-5.8,5.8-5.8,5.8s-9.7,5.5-11.8,8.8c-2.1,3.3-3,7.6-3,7.6
				s-3,5.2-3,12.1s0.6,13.6,0.6,13.6l5.5,7.6c0,0-2.7,5.2-0.9,11.2c1.8,6.1-0.3,6.7,7.9,11.5c8.2,4.8,24.5,8.5,31.2,8.2
				c6.7-0.3,34.5-8.8,35.8-11.2c1.2-2.4-1.2-6.4-1.2-6.4s2.7-0.6,3-4.2c0.3-3.6-3.6-8.5-3.6-8.5s2.7-2.7,2.7-7.3
				c0-4.5-7.3-10.6-7.3-10.6l-7.9-7.3L272.5,547.5z"/>
			<path class="st10" d="M315.9,604.2c0,0-40.3-15.8-46.7-24.9c-6.4-9.1-13.6-25.5-13.6-25.5"/>
			<path class="st10" d="M316.5,616.9c0,0-42.3-8.5-49.1-13c-6.8-4.5-26.7-33.6-26.7-33.6"/>
			<path class="st10" d="M310.1,616.2c0,0-23.6,8.6-34.5,5.5c-10.9-3.2-31.8-18-31.8-18"/>
		</g>
		<g>
			<path class="st7" d="M535.6,204.8c0,0,5,64.6,15.9,90.5c10.9,25.9,32.7,48.9,39.6,50.9c6.8,2,30.5,2.7,37.3-4.1
				c6.8-6.8,29.5-30.2,37.7-69.1c8.2-38.9,5.2-77.1,5.2-77.1L627,155l-51.1,3.4l-17,15L535.6,204.8z"/>
			<path class="st1" d="M538.3,232.5c0,0-13.6-31.4-10.5-54.6c3.2-23.2,18.6-46.4,18.6-46.4l0.5,11.4c0,0,18.6-17.7,40-25.9
				c21.4-8.2,43.6-9.5,43.6-9.5l-8.2,10.5c0,0,19.5,7.3,33.2,12.3c13.6,5,37.3,3.2,36.4,7.3c-0.9,4.1-12.3,7.3-12.3,7.3
				s6.8,18.6,12.7,25c5.9,6.4,4.1,15.9,0.5,15c-3.6-0.9-14.1,1.8-14.1,1.8s15,11.4,9.1,14.1c-5.9,2.7-64.1,0.9-64.1,0.9
				s11.4,6.4,6.8,7.7c-4.5,1.4-45,2.7-59.6-2.7c-14.5-5.5-24.1-8.2-24.1-8.2L538.3,232.5z"/>
			<polygon class="st1" points="664.3,201.1 671.5,238.8 683.4,197.9 			"/>
			<path class="st11" d="M536.1,210.2c0,0-5.5-1.8-12.7,0c-7.3,1.8-13.6,7.7-13.6,7.7l9.1,66.8c0,0,9.5,5.9,16.4,5
				c6.8-0.9,13.2-3.6,13.2-3.6L536.1,210.2z"/>
			
				<rect x="504" y="239.3" transform="matrix(0.9932 -0.1166 0.1166 0.9932 -26.25 61.0948)" class="st11" width="10.5" height="31.4"/>
			<path class="st11" d="M676.2,210.2c0,0,5.5-1.8,12.7,0c7.3,1.8,13.6,7.7,13.6,7.7l-9.1,66.8c0,0-9.5,5.9-16.4,5
				c-6.8-0.9-13.2-3.6-13.2-3.6L676.2,210.2z"/>
			
				<rect x="697.8" y="239.3" transform="matrix(-0.9932 -0.1166 0.1166 -0.9932 1371.5847 590.1827)" class="st11" width="10.5" height="31.4"/>
			<path class="st11" d="M523.3,210.2c2.1,0,4.1,0,6,0c3-39.8,36.2-71.1,76.8-71.1c40.2,0,73.2,30.8,76.7,70.1c2,0,4.2,0.2,6.2,1
				c0.7,0.3,1.4,0.6,2,0.8c-1.9-45.2-39.2-81.3-84.9-81.3c-45.5,0-82.7,35.8-84.9,80.7C521.9,210.3,522.6,210.2,523.3,210.2z"/>
			<polyline class="st8" points="609.9,279 615.6,298.1 600.8,296 			"/>
			<path class="st8" d="M577.1,301.1c0,0,2.7,7.6,8.5,12.1c5.8,4.5,12.1,4.8,12.1,4.8"/>
			<path class="st1" d="M554.4,251.1c0,0,10.3-7.6,19.7-6.4c6.6,0.9,11.6,4,14,5.7c0.9,0.7,1.3,1.9,1,3l0,0
				c-0.5,1.8-2.6,2.7-4.2,1.7c-2.3-1.5-6-3.2-10.8-4C565,249.6,554.4,251.1,554.4,251.1z"/>
			<path class="st9" d="M557.7,265.7c0,0,8.7-4.3,15.8-3.3c11.2,1.5,15.8,8.2,15.8,8.2s-6.7,3.9-17.3,1.5
				C561.4,269.6,557.7,265.7,557.7,265.7z"/>
			<path class="st12" d="M565.6,269.5c0,0,1.1-3.1,4.5-5c3.1-1.8,6.2-1.3,6.2-1.3s2.4,1.4,4.7,3.3c2.3,1.9,4.2,4.9,4.2,4.9
				s-3.9,1.6-10.2,0.8C568.6,271.5,565.6,269.5,565.6,269.5z"/>
			<path class="st1" d="M657.4,251.1c0,0-10.3-7.6-19.7-6.4c-6.6,0.9-11.6,4-14,5.7c-0.9,0.7-1.3,1.9-1,3l0,0
				c0.5,1.8,2.6,2.7,4.2,1.7c2.3-1.5,6-3.2,10.8-4C646.8,249.6,657.4,251.1,657.4,251.1z"/>
			<path class="st9" d="M654.1,265.7c0,0-8.7-4.3-15.8-3.3c-11.2,1.5-15.8,8.2-15.8,8.2s6.7,3.9,17.3,1.5S654.1,265.7,654.1,265.7z"
				/>
			<path class="st12" d="M646.2,269.8c0,0-1-3.1-4.4-5.1c-3.1-1.8-6.1-1.4-6.1-1.4s-2.4,1.4-4.8,3.2c-2.4,1.8-4.3,4.8-4.3,4.8
				s3.9,1.7,10.2,1.1C643.1,271.7,646.2,269.8,646.2,269.8z"/>
			<path class="st13" d="M585.2,197.9c14.9,4,25.9,4.1,25.9,4.1l-5.5-9.5c0,0,19.5,1.4,35.5-0.9c15.9-2.3,20-5.9,20-5.9
				s-19.1,0-36.4-0.9c-17.3-0.9-33.6-6.8-33.6-6.8l5.9,14.5c0,0-10.5,0.5-20.5-3.6c-10-4.1-22.7-11.8-22.7-11.8
				S561.5,191.6,585.2,197.9z"/>
		</g>
		<path class="st14" d="M481.1,610.7l51.8-0.5c0,0,40-16.4,30.9-53.6c-9.1-37.3-38.2,2.7-49.1-29.1c-10.9-31.8,17.3-43.6,1.8-60.9
			c-15.5-17.3-42.3-0.9-42.3-0.9L481.1,610.7z"/>
		<path class="st14" d="M378.8,479.3c0,0,19.8-58.4,38.2-83.6c18.4-25.2,43.2-40.9,43.2-40.9s-1.6,32-14.5,55.9
			c-13,23.9-28,8.9-33.4,25.2c-5.5,16.4,13.6,16.4,4.8,30.7C408.1,480.9,378.8,479.3,378.8,479.3z"/>
		<path class="st14" d="M746.1,478.4c0,0-3.2-30.9-2.5-58.9c0.7-28,2-43,2-43s21.8,19.1,30,41.6c8.2,22.5-15,18.4-8.9,29.3
			c6.1,10.9,25.9,18.4,25.9,18.4s-8.2,5.5-23.9,8.9C753.1,478.2,746.1,478.4,746.1,478.4z"/>
	</g>
	<g>
		<path class="st15" d="M921.2,421.6H612.8c-8,0-14.5,6.5-14.5,14.5v203.1h325.3l12-202.2C936.1,428.6,929.5,421.6,921.2,421.6z"/>
		<polygon class="st15" points="598.3,639.1 565.2,609.8 564.2,601.6 597.9,631.6 		"/>
		<polygon class="st16" points="597.9,631.6 564.2,601.6 598.3,601.6 		"/>
		<path class="st17" d="M837.7,421.6h79.5c9.4,0,16.8,7.9,16.2,17.3l-13.2,200.2c0,0-53.2-19.8-56.6-54.6
			c-3.4-34.8,43.6-50.5,32.7-86.6c-10.9-36.1-43,3.4-68.2-20.5C802.9,453.6,837.7,421.6,837.7,421.6z"/>
		<circle class="st18" cx="768.8" cy="536.8" r="23.9"/>
	</g>
	
		<ellipse transform="matrix(0.9293 -0.3694 0.3694 0.9293 -46.0366 311.4734)" class="st10" cx="790.4" cy="276" rx="47.1" ry="47.1"/>
	<circle class="st10" cx="827.5" cy="165.5" r="35.5"/>
	<g>
		<rect x="769.6" y="249.5" class="st10" width="41.6" height="53"/>
		<line class="st10" x1="774.8" y1="263.1" x2="805.7" y2="263.1"/>
		<line class="st10" x1="774.8" y1="268.8" x2="805.7" y2="268.8"/>
		<line class="st10" x1="774.8" y1="274.5" x2="805.7" y2="274.5"/>
		<line class="st10" x1="774.8" y1="280.2" x2="805.7" y2="280.2"/>
		<line class="st10" x1="774.8" y1="285.8" x2="805.7" y2="285.8"/>
		<rect x="788.9" y="291.3" class="st19" width="17.3" height="7"/>
		<rect x="774.9" y="254" class="st19" width="30.6" height="3.9"/>
	</g>
	<g>
		<polygon class="st20" points="811,144.6 812.9,148.5 817.2,149.1 814.1,152.1 814.8,156.3 811,154.3 807.3,156.3 808,152.1 
			804.9,149.1 809.1,148.5 		"/>
		<polygon class="st20" points="811,159.6 812.9,163.5 817.2,164.1 814.1,167.1 814.8,171.3 811,169.3 807.3,171.3 808,167.1 
			804.9,164.1 809.1,163.5 		"/>
		<polygon class="st20" points="811,174.6 812.9,178.5 817.2,179.1 814.1,182.1 814.8,186.3 811,184.3 807.3,186.3 808,182.1 
			804.9,179.1 809.1,178.5 		"/>
		<line class="st10" x1="822.4" y1="151.8" x2="850.1" y2="151.8"/>
		<line class="st10" x1="822.4" y1="167.2" x2="850.1" y2="167.2"/>
		<line class="st10" x1="822.4" y1="182.7" x2="850.1" y2="182.7"/>
	</g>
	<circle class="st21" cx="349.4" cy="317.3" r="21.1"/>
	<circle class="st21" cx="320.8" cy="250.4" r="11.6"/>
</g>
</svg>
