<?xml version="1.0" encoding="utf-8"?>
<!-- Generator: Adobe Illustrator 24.0.2, SVG Export Plug-In . SVG Version: 6.00 Build 0)  -->
<svg version="1.1" id="_x32_6e08365-e7f3-4f87-b2fd-e29738693ebb"
	 xmlns="http://www.w3.org/2000/svg" xmlns:xlink="http://www.w3.org/1999/xlink" x="0px" y="0px" viewBox="0 0 999 797.3"
	 style="enable-background:new 0 0 999 797.3;" xml:space="preserve">
<style type="text/css">
	.st0{opacity:0.33;fill:#A2E5FF;}
	.st1{fill:#A2E5FF;}
	.st2{fill:#6ED5FF;}
	.st3{fill:#00BCFF;}
	.st4{opacity:0.68;fill:#6ED5FF;}
	.st5{fill:#FFFFFF;}
	.st6{fill:#FFD231;}
	.st7{opacity:0.4;fill:#00BCFF;}
	.st8{opacity:0.83;fill:#FFFFFF;}
	.st9{opacity:0.36;}
	.st10{fill:#004CC2;}
	.st11{fill:#FC9F8A;}
	.st12{fill:#E62811;}
	.st13{fill:#F44259;}
	.st14{opacity:0.38;fill:#00BCFF;}
	.st15{opacity:0.51;fill:#FF9700;}
	.st16{opacity:0.5;fill:#FF5E00;}
	.st17{opacity:0.54;fill:#004CC2;}
	.st18{opacity:0.45;fill:#004CC2;}
	.st19{clip-path:url(#XMLID_4_);fill:#00BCFF;}
	.st20{opacity:0.24;clip-path:url(#XMLID_4_);fill:#00BCFF;}
	.st21{clip-path:url(#XMLID_5_);fill:#00BCFF;}
	.st22{opacity:0.24;clip-path:url(#XMLID_5_);fill:#00BCFF;}
	.st23{opacity:0.29;fill:#7338FF;}
	.st24{fill:#FF9700;}
	.st25{opacity:0.3;fill:#F44259;}
	.st26{opacity:0.27;fill:#FF9700;}
	.st27{opacity:0.1;fill:#F44259;}
	.st28{fill:#FFA18A;}
	.st29{clip-path:url(#SVGID_2_);fill:#00BCFF;}
	.st30{opacity:0.24;clip-path:url(#SVGID_2_);fill:#00BCFF;}
	.st31{fill:#FFC9AF;}
	.st32{opacity:0.3;fill:#FFC9AF;}
	.st33{clip-path:url(#XMLID_6_);fill:#FFC9AF;}
	.st34{opacity:0.21;}
	.st35{opacity:0.8;fill:#00BCFF;}
	.st36{opacity:0.51;fill:#6ED5FF;}
	.st37{opacity:0.35;fill:#00BCFF;}
	.st38{opacity:0.46;fill:#00BCFF;}
	.st39{fill:#3E417C;}
</style>
<title>press play</title>
<g>
	<g>
		<path class="st0" d="M888.6,443.5c-6.7,53.2-45,44.3-51.1,106.1c-2.2,22.1,14.2,35.9,22.3,55c9,21.1,5.8,40.1-6.3,54.5H186.3
			c-14.8-6.6-28.8-13.7-41.1-22.2c-16.9-11.7-30.2-26-37-45.7c-6.1-17.8-10.9-35,5.3-48.5c8.8-7.3,17.9-13,25.8-19.8
			c6-5.1,11.2-10.9,15.2-18.5c29.1-55.8-8.2-105-21.9-160.8c-1.3-5.4-2.5-10.9-3.5-16.4c-2.5-14-3.7-28.2-2.2-42.1
			c1.3-12.7,4.9-25.1,11.7-36.7c10.2-17.5,36.5-43.3,64.9-38.4c21.3,3.7,34.7,24.1,53.9,31.5c24.2,9.3,51.1,1.9,69.2-11.8
			c35.3-26.6,57.9-77.1,118.2-72.5c20.4,1.6,34.3,17.7,52.2,25.1c24.6,10.2,49,10.1,72.5,0.2c27.1-11.4,45.7-32.6,72.3-44.7
			c8.7-4,18.2-7.4,28.1-10.1c21.4-5.8,44.8-7.8,66.9-3.4c4.7,0.9,9.1,2.1,13.3,3.4c73.8,22.7,77.2,97.1,73.8,151.4
			c-1.6,24.9-21.5,67.8-6.8,93.5C831.6,398.3,895.1,392.1,888.6,443.5z"/>
		<g>
			<g>
				<polygon class="st1" points="233.2,659.1 227,659.1 226.2,631.7 241.9,631.7 				"/>
				<polygon class="st1" points="349.2,659.1 355.5,659.1 356.2,631.7 340.5,631.7 				"/>
			</g>
			<rect x="218" y="365.7" class="st2" width="146.4" height="269.2"/>
			<g>
				<g>
					<rect x="230.4" y="386" class="st1" width="121.6" height="52.9"/>
					<circle class="st2" cx="291.2" cy="412.5" r="8.1"/>
				</g>
				<g>
					<rect x="230.4" y="444.6" class="st1" width="121.6" height="52.9"/>
					<circle class="st2" cx="291.2" cy="471" r="8.1"/>
				</g>
				<g>
					<rect x="230.4" y="503.1" class="st1" width="121.6" height="52.9"/>
					<circle class="st2" cx="291.2" cy="529.6" r="8.1"/>
				</g>
				<g>
					<rect x="230.4" y="561.7" class="st1" width="121.6" height="52.9"/>
					<circle class="st2" cx="291.2" cy="588.1" r="8.1"/>
				</g>
			</g>
			<rect x="213.7" y="361.3" class="st1" width="155" height="10.2"/>
		</g>
		<g>
			<g>
				<g>
					<g>
						<path class="st2" d="M271.5,182.5c-1.8-4.9,1.9-11.1,6.7-14.3c3.2-2.1,6.9-3.4,8.9-6.2c-0.2,3.7-1.1,6.8-3.6,10.3
							C280.8,176.1,276.7,180.1,271.5,182.5z"/>
						<path class="st1" d="M271.5,184.2c0.7-2.7-2.1-5.2-3.9-6.7c-1.8-1.5-3.8-2.7-5.4-4.4c-3.5-3.6-3.6-10.5,0.3-14.3
							c-1.1,0.9,0.6,4.2,1.1,5c1.2,1.9,3.2,3.3,4.8,5C272.2,172.8,272.9,178.6,271.5,184.2z"/>
						<path class="st1" d="M272.4,179c-0.9-2.4,1.7-5.4,3.3-7.1c1.6-1.7,3.5-3.3,4.9-5.2c3.1-4,2.6-10.7-1.5-13.6
							c1.2,0.7-0.3,4.1-0.7,5c-1,2.1-2.8,3.8-4.3,5.7C270.7,168.2,270.6,173.9,272.4,179z"/>
						<path class="st2" d="M271,178.4c-0.9-0.2-1.7-1.4-2.1-2c-0.8-1.2-1.3-2.5-1.5-3.9c-0.6-3.5,0.5-6.9,0.6-10.2
							c0.1-2.6,0-5.2-0.9-7.6c-0.4-1.2-1.2-2.2-1.9-3.2c-0.1-0.1,1.1,0.3,1.2,0.3c6.9,3.1,8.4,9.6,7.1,16.1
							c-0.4,2.1-0.7,4.1-1.3,6.1C271.7,175.4,270.7,177.1,271,178.4z"/>
					</g>
					<g>
						<polygon class="st1" points="280.6,195.8 266.3,195.8 261.7,180.9 285.3,180.9 						"/>
						<polygon class="st2" points="281.3,197 265.6,197 265.5,194.6 281.4,194.6 						"/>
						<polygon class="st2" points="285.7,182.7 261.2,182.7 260.7,177.9 286.2,177.9 						"/>
					</g>
				</g>
				<path class="st2" d="M369.5,168.3l1.7,3.5c0.6,1.3,1.9,2.2,3.3,2.4l3.8,0.6c3.6,0.5,5,4.9,2.4,7.5l-2.8,2.7
					c-1,1-1.5,2.5-1.3,3.9l0.7,3.8c0.6,3.6-3.1,6.3-6.3,4.6l-3.4-1.8c-1.3-0.7-2.8-0.7-4.1,0l-3.4,1.8c-3.2,1.7-7-1-6.3-4.6l0.7-3.8
					c0.2-1.4-0.2-2.9-1.3-3.9l-2.8-2.7c-2.6-2.5-1.2-6.9,2.4-7.5l3.8-0.6c1.4-0.2,2.7-1.1,3.3-2.4l1.7-3.5
					C363.2,165.1,367.9,165.1,369.5,168.3z"/>
				<g>
					<rect x="313" y="139.6" class="st2" width="15.7" height="57.7"/>
					<rect x="328.3" y="147.1" class="st3" width="8.9" height="50.2"/>
					<rect x="300.2" y="159.9" class="st1" width="13.2" height="37.4"/>
					<rect x="300.2" y="165.6" class="st4" width="13.2" height="4.3"/>
					<rect x="300.2" y="188.4" class="st4" width="13.2" height="4.3"/>
					<rect x="336.4" y="143.8" class="st2" width="11" height="53.5"/>
					<rect x="339.3" y="160" class="st1" width="5.2" height="23.9"/>
				</g>
				<g>
					<g>
						<g>
							
								<rect x="359" y="209.9" transform="matrix(-1 -1.224647e-16 1.224647e-16 -1 727.2736 442.1351)" class="st2" width="9.2" height="22.4"/>
							
								<rect x="353" y="207.8" transform="matrix(-1 -1.224647e-16 1.224647e-16 -1 727.2736 422.0498)" class="st2" width="21.3" height="6.5"/>
						</g>
						<g>
							
								<rect x="266.9" y="209.9" transform="matrix(-1 -1.224647e-16 1.224647e-16 -1 543.1082 442.1351)" class="st2" width="9.2" height="22.4"/>
							
								<rect x="260.9" y="207.8" transform="matrix(-1 -1.224647e-16 1.224647e-16 -1 543.1084 422.0498)" class="st2" width="21.3" height="6.5"/>
						</g>
					</g>
					
						<rect x="245.1" y="196.7" transform="matrix(-1 -1.224647e-16 1.224647e-16 -1 635.1909 405.6005)" class="st1" width="145.1" height="12.1"/>
				</g>
			</g>
			<g>
				<g>
					<path class="st2" d="M204,267h-9.4c-0.3,0-0.6,0.2-0.7,0.5L177,296c-0.2,0.6,0.3,1.3,0.9,1.3l16.4,0c0.3,0,0.6-0.2,0.7-0.5
						l9.9-28.4C205.1,267.7,204.6,267,204,267z"/>
					<polygon class="st3" points="185.6,255.7 235.2,255.7 241.9,297.4 192.3,297.4 					"/>
					<polygon class="st2" points="187.4,255.7 236.9,255.7 243.6,297.4 194.1,297.4 					"/>
					<polygon class="st5" points="191.9,259.5 233.6,259.5 239.1,293.5 197.3,293.5 					"/>
					<polygon class="st2" points="198.9,266 228.7,266 232.1,287 202.3,287 					"/>
				</g>
				<g>
					<path class="st2" d="M279.4,283c0,5.3-3,10-7.4,12.3c-0.1,0.1-0.2,0.1-0.3,0.1c-1.9,0.9-4,1.5-6.2,1.5c-4.3,0-8.2-2-10.7-5
						c-0.2-0.2-0.4-0.5-0.6-0.8c-1.7-2.3-2.6-5.1-2.6-8.1c0-6.9,5-12.6,11.6-13.7c0.2,0,0.4-0.1,0.7-0.1c0.5-0.1,1-0.1,1.6-0.1
						c7,0,12.8,5.2,13.7,11.9c0,0.3,0.1,0.6,0.1,0.8C279.3,282.2,279.4,282.6,279.4,283z"/>
					<path class="st1" d="M263,283.9c-1.3,2.2-3,4.2-4.9,5.8c-1,0.9-2.1,1.6-3.3,2.1c-0.2-0.2-0.4-0.5-0.6-0.8
						c1.7-0.7,3.2-1.9,4.5-3.3c1.8-1.9,3.5-4,4.6-6.4c1.2-2.5,1.7-5.3,1.3-8.1c-0.2-1.2-0.6-2.5-1.2-3.6c-0.1-0.1-0.2-0.3-0.3-0.5
						c0.2,0,0.4-0.1,0.7-0.1c0.2,0.3,0.3,0.5,0.4,0.8C266.5,274.4,265.5,279.7,263,283.9z"/>
					<path class="st1" d="M279.3,281.8c-0.6,0.4-1.2,0.9-1.7,1.4c-3.3,3.1-5.3,7.5-5.7,12c-0.1,0.1-0.2,0.1-0.3,0.1
						c0.2-4.7,2.1-9.3,5.5-12.6c0.6-0.6,1.3-1.2,2.1-1.8C279.3,281.3,279.3,281.6,279.3,281.8z"/>
				</g>
				<g>
					<g>
						<g>
							
								<rect x="271.3" y="309.3" transform="matrix(-1 -1.224647e-16 1.224647e-16 -1 551.9353 641.0768)" class="st2" width="9.2" height="22.4"/>
							
								<rect x="265.3" y="307.3" transform="matrix(-1 -1.224647e-16 1.224647e-16 -1 551.9353 620.9913)" class="st2" width="21.3" height="6.5"/>
						</g>
						<g>
							
								<rect x="179.3" y="309.3" transform="matrix(-1 -1.224647e-16 1.224647e-16 -1 367.7703 641.0768)" class="st2" width="9.2" height="22.4"/>
							
								<rect x="173.3" y="307.3" transform="matrix(-1 -1.224647e-16 1.224647e-16 -1 367.7703 620.9913)" class="st2" width="21.3" height="6.5"/>
						</g>
					</g>
					
						<rect x="157.4" y="296.2" transform="matrix(-1 -1.224647e-16 1.224647e-16 -1 459.8528 604.5422)" class="st1" width="145.1" height="12.1"/>
				</g>
			</g>
		</g>
		<g>
			<ellipse class="st2" cx="782.8" cy="562.1" rx="34.5" ry="32.8"/>
			<polygon class="st1" points="816.3,566.5 749.7,566.5 753,659.1 813,659.1 			"/>
			<rect x="746" y="560.8" class="st2" width="75.5" height="11.9"/>
			<g>
				<path class="st1" d="M772.9,536.4c-1.8,4.3-3.3,8.7-4.3,13.2c-0.8,3.7-1.2,7.4-1.4,11.1h50c-0.5-12.3-8.2-22.9-19.2-28.1
					c-4.1,0.9-8.3,1.7-12.5,2.4C781.4,535.8,777.2,536.3,772.9,536.4z"/>
			</g>
		</g>
	</g>
	<g>
		<rect x="429.4" y="105.1" class="st6" width="224.9" height="148.8"/>
		<path class="st6" d="M471.8,251.6c-0.1,0.6,0.6,36.3,0.6,36.3l19.2-36.1L471.8,251.6z"/>
		<g>
			<rect x="435.1" y="111.6" class="st5" width="213.5" height="135.8"/>
			<g>
				<path class="st7" d="M648.6,222.8H466.4c-1.6,0-3-1.3-3-3V111.6h185.1V222.8z"/>
				<path class="st8" d="M648.6,213.9H477.5c-0.9,0-1.7-0.8-1.7-1.7V111.6h172.8V213.9z"/>
				<g class="st9">
					<path class="st10" d="M635.5,139.9c-2.1-1.8-6.3-1.3-9-1.3c-8.3-0.2-16.6-0.3-24.9-0.2c-0.5,0-0.9,0.3-0.9,0.7
						c-0.1,5.9,0.1,11.8,0.6,17.7c-3.4-4.2-7.1-8.3-11.5-11.8c-0.2-0.2-0.7,0.1-0.5,0.3c4.2,4.6,8.5,9.2,12.2,14.1
						c0.4,0.5,1.5,0.4,1.4-0.3c-0.5-6.4-0.7-12.8-0.6-19.2c6.6,0.1,13.2,0.1,19.7,0.2c3.2,0.1,6.5,0,9.8,0.2
						c3.6,0.3,2.8,3.1,3.7,5.2c0.2,0.4,0.8,0.4,1,0C637.6,143.7,637,141.2,635.5,139.9z"/>
					<path class="st10" d="M634.2,152c-1,1-2.3,3.1-4.2,2.7c-1.1-0.3-1.4-1.6-1.8-2.4c-0.4-0.9-0.8-1.7-1.2-2.6
						c-0.2-0.4-1-0.6-1.3-0.2c-0.6,0.8-1.2,1.7-1.9,2.4c-0.5,0.6-1.8,2.1-2.8,1.8c-0.8-0.3-1.1-1.6-1.2-2.4c0.6-1.1,0.8-2.2,0.6-3.5
						c-0.1-0.5-1.1-0.6-1.3-0.2c-0.6,1.1-0.9,2.3-0.8,3.5c-0.2,0.4-0.4,0.7-0.7,1c-0.9,1.1-2.2,2.5-3.7,2.9c-2,0.6-3.3-1-3.8-2.4
						c-0.3-0.8-0.9-3.6,0.4-3.7c0.4,0,0.3-0.6-0.1-0.6c-0.2,0-0.5,0-0.7,0c-0.1,0-0.3,0.1-0.4,0.2c-1,1.6-1,3.5-0.2,5.2
						c0.7,1.5,2.2,2.9,4.4,2.6c2.1-0.3,3.8-1.8,5-3.2c0.1-0.1,0.2-0.2,0.3-0.3c0.3,0.7,0.7,1.4,1.5,1.8c2.3,1.2,4.7-1.6,6-3.5
						c0.4,0.9,0.8,1.9,1.3,2.8c0.5,0.9,1.1,1.6,2.4,1.8c2.7,0.4,4.5-1.7,4.9-3.6C634.9,152.1,634.5,151.8,634.2,152z"/>
					<path class="st10" d="M646.1,136.1c-0.3-0.3-0.8-0.3-1.2-0.4c-0.4,0-0.9-0.1-1.3-0.2c-0.6-0.2-1.2-0.6-1.3-1.2
						c0-0.6-1.1-0.6-1.1,0c0,0,0,0.1,0,0.1l0,0c0.1,0.7,0.2,1.5-0.1,2.2c-0.1,0.4-0.3,0.7-0.6,1c-0.2,0.3-0.7,0.7-1.1,0.7
						c-0.4,0-0.5-0.5-0.5-0.7c-0.1-0.5-0.1-1.1-0.2-1.6c0-1.1,0-2.1,0.2-3.2c0-0.2-0.4-0.3-0.4-0.1c-0.2,1-0.4,2-0.4,3
						c0,0.5,0,1,0,1.5c0,0.4,0.1,0.7,0.2,1.1c0.1,0.3,0.4,0.5,0.8,0.6c0.5,0.1,1-0.2,1.3-0.4c0.7-0.5,1.1-1.1,1.3-1.8
						c0.1-0.3,0.2-0.6,0.2-0.9c0.2,0.1,0.4,0.3,0.6,0.4c0.5,0.2,1.1,0.4,1.6,0.4c0.6,0.1,1.2,0.2,1.7-0.2
						C646.3,136.4,646.2,136.2,646.1,136.1z"/>
					<path class="st10" d="M587,183.5c-0.4,0.5-1.5,0.5-2.1,0.2c-0.8-0.4-1.2-1.3-1.4-2c-0.2-0.5-0.9-0.6-1.3-0.2
						c-0.7,0.8-1.3,1.6-2,2.4c-0.3,0.4-1.8,2.4-2,1.1c-0.3-1.9,0.1-4,0.6-5.8c0.2-0.7-1.1-1-1.3-0.3c-0.4,1.7-1.2,3.2-2.5,4.6
						c-0.9,1-3,3.2-4.8,2.8c-1.1-0.2-1.3-1.3-1.4-2.1c-0.2-0.9-0.2-1.9-0.2-2.8c0.1-1.9,0.8-3.8,1.8-5.4c0.3-0.5-0.5-0.9-0.8-0.4
						c-1.3,2-2,4.1-2.1,6.4c-0.1,1.6-0.1,4.6,2.1,5.3c2.2,0.7,4.5-1.2,5.8-2.4c0.5-0.5,1-1.1,1.4-1.6c0,0,0,0,0,0
						c0,0.9-0.4,2.5,0.7,3.2c1,0.6,2.2,0,2.8-0.6c0.8-0.9,1.5-1.8,2.3-2.7c0.5,0.8,1.1,1.6,2.2,1.9c1.3,0.3,2.7-0.1,3-1.2
						C588,183.3,587.3,183.1,587,183.5z"/>
					<path class="st10" d="M600.2,185.4c-0.2-0.3-0.6-0.6-1-0.9c-0.4-0.3-0.7-0.6-1.1-0.9c-0.1-0.1-0.3-0.2-0.4-0.3
						c0.1-0.2,0.2-0.5,0.3-0.7c0.6-1.5,1-3,1-4.5c0-0.4-0.7-0.4-0.7,0c-0.2,1.5-0.7,2.9-1.4,4.3c0,0.1-0.1,0.1-0.1,0.2
						c-0.3-0.2-0.5-0.4-0.8-0.7l-4.4-3.4c-0.4-0.3-1.1,0.2-0.7,0.5c1.4,1.2,2.8,2.5,4.2,3.7c0.4,0.3,0.7,0.6,1.1,1
						c-0.1,0.2-0.2,0.4-0.4,0.6c-0.4,0.7-0.9,1.5-1.2,2.2c-0.2,0.6,0.9,1.1,1.3,0.5c0.5-0.7,0.8-1.5,1.1-2.2c0-0.1,0.1-0.1,0.1-0.2
						l1,0.8c0.4,0.3,0.7,0.7,1.2,0.9C599.9,186.5,600.4,185.9,600.2,185.4z"/>
					<path class="st10" d="M637.9,179c-0.2-0.3-0.6-0.1-0.7,0.1c-0.2,1.2-1.1,2.7-2.6,3c-1.8,0.4-3.4-1-3.4-2.5c0-0.8-1.5-1-1.7-0.2
						c-0.4,1.3-1,3.4-3,3.6c-2.9,0.2-3.3-2.8-3.1-4.5c0.1-0.7-1.3-0.8-1.4-0.2c-0.5,1.9-1.9,3.9-4.2,4.6c-3.4,1.1-3.8-2.4-3.6-4.3
						c0-0.6-1.2-0.8-1.4-0.2c0,0,0,0.1,0,0.2h0c0,0,0,0,0,0c-0.1,0.4-0.1,0.8-0.1,1.2c-0.2,0.9-0.7,1.9-1.5,2.4
						c-0.3,0.2-1,0.4-1.2,0.2c-0.2-0.2-0.1-0.8-0.1-1.1c0-0.8,0.4-1.6,0.9-2.3c0.2-0.3-0.3-0.5-0.5-0.3c-0.8,0.9-2.7,4.8,0,5
						c1.2,0.1,2.2-1,2.8-1.7c0.1-0.1,0.1-0.1,0.1-0.2c0.5,1.5,1.7,2.7,3.9,2.5c2.3-0.2,4-1.5,5.2-3.1c0.5,1.6,1.7,2.9,3.9,3.1
						c2.2,0.2,3.5-1,4.3-2.4c0.9,1.2,2.6,1.9,4.4,1.7C637.2,183.3,639.2,181,637.9,179z"/>
					<path class="st10" d="M558.7,118c-0.1-0.3-0.6-0.5-0.9-0.3c-10.8,5.2-21.6,10.5-32.1,16c-0.4-0.3-0.8-0.6-1.2-0.8
						c-0.2-0.1-0.4,0-0.5,0.1c-0.2,0.3-0.2,0.5,0,0.8c0.1,0.2,0.4,0.1,0.4-0.1c0,0,0,0,0,0c0.2,0.2,0.4,0.3,0.5,0.5
						c-1,0.5-2,1-2.9,1.6c-0.3,0.1,0,0.5,0.2,0.4c1-0.5,2.1-1,3.1-1.5c0.4,0.4,0.8,0.7,1.2,1.2c0.7,0.8,1.3,1.8,1.6,2.7
						c0.2,0.6,0.5,1.3,0.6,2c-4.4-0.3-8.9-0.7-13.3-1.1c-0.6-0.1-0.8,0.8-0.2,0.9c4.5,0.7,9,1.1,13.5,1.4c-0.1,0.7-0.3,1.4-1,1.9
						c-0.1,0.1-0.1,0.3,0.1,0.4c1.2,0.2,1.8-0.9,2-1.7c0-0.2,0-0.3,0-0.5c10.5,0.6,21.2,0.1,31.5-1.1c0.3,0,0.5-0.3,0.5-0.5
						C561.7,132.7,560.7,125.3,558.7,118z M537.9,140.8c-2.7,0-5.4-0.1-8.1-0.3c-0.1-0.6-0.3-1.2-0.5-1.7c-0.4-1.1-1-2.2-1.8-3.2
						c-0.4-0.5-0.8-1-1.3-1.4c10.5-5.1,20.9-10.3,31.4-15.2c1.6,6.8,2.6,13.7,2.8,20.7C553,140.4,545.5,140.9,537.9,140.8z"/>
					<path class="st10" d="M574.4,124.9c-0.7,0-1.4,0.4-2,0.6c-0.7,0.2-1.3,0.5-2,0.7c-1.3,0.5-2.8,1-4,1.6
						c-0.2,0.1-0.1,0.4,0.2,0.3c1.4-0.3,2.7-0.9,4.1-1.4c0.7-0.2,1.3-0.5,2-0.7c0.6-0.3,1.4-0.5,1.9-0.9
						C574.7,125.1,574.6,124.9,574.4,124.9z"/>
					<path class="st10" d="M579.6,122.6c-0.5-0.3-1.1-0.1-1.6-0.1c-0.7,0.1-1.3,0.1-2,0.2c-0.7,0.1-1.3,0.1-2,0.2
						c-0.3,0-0.7,0.1-1,0.1c-0.3,0.1-0.8,0.1-1,0.2c-0.2,0.1-0.2,0.4,0.1,0.5c0.3,0.1,0.5,0.1,0.8,0.1c0.3,0,0.6,0,0.9,0
						c0.6,0,1.2-0.1,1.7-0.1l1.7-0.1c0.5,0,1.1-0.1,1.6-0.1c0,0,0,0,0,0c-0.1,0.2-0.2,0.3-0.3,0.5c-0.2,0.4-0.4,0.7-0.7,1.1
						c-0.3,0.3-0.5,0.7-0.8,1c-0.2,0.2-0.3,0.3-0.5,0.5c-0.2,0.2-0.2,0.4-0.4,0.6c-0.2,0.3,0.3,0.5,0.6,0.4c0.6-0.2,0.9-0.6,1.3-1
						c0.4-0.4,0.7-0.8,1-1.2c0.3-0.4,0.5-0.9,0.8-1.3C580.1,123.4,580.2,122.9,579.6,122.6z"/>
					<path class="st10" d="M609.2,120.5c-0.5-0.1-1-0.1-1.5-0.2c-0.6-0.1-1-0.4-1.6-0.5c-0.6-0.2-1.2-0.1-1.7,0.2
						c-0.6,0.4-0.9,0.9-1.4,1.3c-1.2,1.1-2.2-0.2-2.8-1.1c-0.3-0.5-1.1-0.2-1.1,0.2c-0.1,0.8-1.2,1.1-2,0.7c-0.7-0.3-1-1-1-1.6
						c0-0.5-0.8-0.7-1.1-0.3c-0.7,0.9-1.6,1.8-2.6,2.5c-0.8,0.6-1.6,0.1-1.9-0.6c-0.3-0.6-0.2-1.3,0.1-1.8c0.2-0.6-0.8-0.8-1.1-0.3
						c-0.3,1-1,1.9-1.9,2.6c-0.7,0.5-2,0.8-2.6,0c-0.4-0.6-0.4-1.5-0.4-2.1c0-0.1-0.1-0.1-0.2,0c-0.4,0.9-0.9,1.6-0.3,2.6
						c0.4,0.7,1.2,1.1,2.1,1c1.2-0.1,2.3-0.8,3.1-1.7c0.2,0.8,0.8,1.6,2,1.7c1.6,0.3,3.1-1.2,4-2.5c0.4,0.8,1.1,1.5,2.2,1.6
						c1,0.1,1.8-0.3,2.3-0.8c1,1.1,2.4,1.9,3.9,0.7c0.7-0.6,1.1-1.8,2.3-1.4c1.1,0.4,2.1,0.7,3.3,0.2
						C609.5,120.9,609.5,120.5,609.2,120.5z"/>
					<path class="st10" d="M611.3,126.7c-1-0.2-2-0.1-3-0.2c-1-0.2-2-0.5-3.1-0.6c-1-0.1-1.9,0.1-2.8,0.5c-0.5,0.3-2.6,1.6-2.9,0.5
						c-0.1-0.4-0.7-0.5-1.1-0.2c-1,0.7-2.1,1.5-3.5,1.4c-1.2-0.1-2.4-1.3-1.1-2.1c0.5-0.3-0.1-1-0.6-0.7c-1.5,0.9-1.2,2.7,0.3,3.4
						c1.8,0.9,3.7,0.1,5.2-0.8c0.5,0.4,1.2,0.6,1.9,0.6c1.4-0.1,2.3-1.2,3.7-1.3c1.4-0.1,2.7,0.4,4,0.6c1.1,0.2,2.5,0.4,3.2-0.4
						C611.6,126.9,611.5,126.7,611.3,126.7z"/>
				</g>
			</g>
			<g>
				<path class="st10" d="M579.8,247.4H476.3c1.5-7.8,7-33.2,15.5-38.9c7-4.7,15.4-8.8,26.8-10.3c0.8-0.1,1.5-0.2,2.3-0.3
					c1-0.1,2.1-0.2,3.2-0.3c0,0,0,0,0,0c3.2-0.2,6.6-0.2,10.3,0.1h0.1c0.7,0,1.5,0.1,2.2,0.2c0.7,0,1.4,0.1,2.1,0.2
					c18.3,2.5,34.2,13.4,37.3,28.8c0.5,2.4,0.9,4.5,1.2,6.4v0C578.9,240.8,579.5,245.2,579.8,247.4z"/>
				<path class="st3" d="M545.5,247.4h-26c-0.7-6.9-2.5-29-2.7-32.8c-0.5-8.1-0.1-12.3,1.6-14.5c0.6-0.8,1.5-1.3,2.5-1.6
					c1.1-0.3,2.5-0.4,4.3-0.4c1.4,0,2.9,0.1,4.7,0.3c0.9,0.1,1.7,0.1,2.5,0.2c1.8,0.2,3.3,0.4,4.5,0.8c1.3,0.4,2.4,0.8,3.1,1.4
					c2.1,1.5,2.6,3.8,3.1,7.5C544,214.2,545.4,240.1,545.5,247.4z"/>
				<rect x="519.4" y="183.5" class="st11" width="18.7" height="16.7"/>
				<g>
					<path class="st11" d="M581.9,186.4c-0.3-6.1,0.6-12.4,3.6-17.7c0.7-1.2,2.3-2.5,3.3-1.5c0.4,0.4,0.5,1.1,0.5,1.7
						c0.1,4.7-0.3,9.4-1.3,14c0.7-1.6,2.7-2.4,4.4-1.8c1.6,0.5,2.8,2.3,2.7,4c0.4-1.8,3.1-2,4.4-0.7c1.3,1.3,1.5,3.2,1.5,5
						c0.7-0.9,2.2-0.6,2.9,0.2c0.7,0.9,0.8,2,0.8,3.1c0,3.4-0.7,6.8-2.5,9.7c-1.8,2.9-4.8,5.1-8.1,5.4
						C583.4,209.1,582.3,193.7,581.9,186.4z"/>
					<path class="st11" d="M586.4,204.4c0,0-8.9-5-5.8-10.6c3.1-5.6,12.1-2.7,10.2,0.6c-1.9,3.3-6.2,2.7-6.2,2.7L586.4,204.4z"/>
				</g>
				<path class="st5" d="M518.7,195.6c1-0.1,5.8,3.6,11.1,3.3c5.2-0.3,7.8-2.7,8.6-3.5c0.8-0.8,5,7.7,4.4,8.7
					c-0.6,0.9-2.6,4.6-4.5,3.9c-1.9-0.7-7.3-7.1-7.3-7.1s-4.9,7.8-6.7,7.8c-1.8,0-7.7-2.7-8-7C516.1,197.5,517.5,195.8,518.7,195.6z
					"/>
				<polygon class="st10" points="603.5,204.4 603.1,247.4 574.9,247.4 577.4,233.3 577.4,233.3 582.7,203.8 585.5,203.9 
					585.6,203.9 585.8,203.9 586.2,203.9 600.8,204.3 				"/>
				<g>
					<path class="st10" d="M550.2,138.7c-0.5-0.4-1.2-0.3-1.8,0.3c-0.5,0.5-1.1,1.5-1.3,2.2c-0.7,2.5-0.5,5.3,0,7.7
						c0.4,2.2,1,4.4,2,6.3c0,0.1,0.1,0.2,0.1,0.2c0.5,0.9,1.1,1.7,1.8,2.4c0.1,0.1,0.3,0.1,0.4,0.1c0.5,0,1-0.3,1.3-0.7
						c2.5-2.4,2-6.3,1.5-9.1c-0.6-3.3-1.8-6.4-3.6-9C550.5,139,550.3,138.8,550.2,138.7z"/>
					<path class="st11" d="M553.5,160.3c0,16-2.5,29.8-19.4,30.9c-21.7,1.4-30.5-14.8-30.5-30.9s11.2-29.1,24.9-29.1
						S553.5,144.3,553.5,160.3z"/>
					<path class="st5" d="M527,174.9c0.6-1.1,4-0.8,8-1.3c4.5-0.5,7.6-1.4,8.4-0.9c1.5,0.8-1.6,7.3-7.3,7.9
						C531.8,181,525.8,176.9,527,174.9z"/>
					<path class="st10" d="M522.8,139.7c4.6,2.8,9.1,5.6,14.1,7.7c5.6,2.3,11.8,3.1,17.1-0.7c1.2-0.9,2.7-2.7,0.9-3.6
						c-1.2-0.6-2.8-0.5-4.1-0.6c1.5,0.1,3.1-0.2,4.3-1.1s1.9-2.5,1.5-3.9c-0.3-1-1.1-1.9-2-2.5c-2.6-2-5.9-3-9.2-3.7
						c-0.6-0.1-1.2-0.2-1.7-0.3c0.5-0.6,0.9-1.4,0.8-2.1c-0.1-0.8-0.9-1.3-1.6-1.8c-5.6-3.4-12.7-3.6-19.4-3.6
						c-4.7,0-9.6,0.1-13.9,2.2c-2,1-4,2.6-4.2,4.7c-4.6,0.4-8.5,3.9-10,8c-1.6,4.2-1,8.8,0.6,12.9c1.6,4.1,3.5,8.8,5,9.6
						c1.5,0.9,1.6-0.2,3.4,0.7c1.8,0.9,1.9,3.5,3.3,3.6c1.4,0.1,1.3-3.6,1.7-5.3c0.8-3.5,0.7-7.1,1.6-10.5c1-3.7,3-7.2,5.9-10.1
						c0.5-0.5,1-0.9,1.6-1.2c0.1-0.1,1.7,0.3,1.9,0.4c0.9,0.2,1.7,0.8,2.4,1.2C522.7,139.6,522.7,139.6,522.8,139.7z"/>
					<g>
						<path class="st11" d="M503.8,161.3c-1.8-3.3-4.5-5.5-7.1-3.2c-0.9,0.7-1.3,2.1-1.3,3.5c0,1.4,0.3,2.8,0.8,4.1
							c1.2,3.3,3.2,6.2,5.7,7.5c1,0.5,2.1,0.6,2.9-0.1c1.1-1,1.3-3.1,1.2-4.8C505.8,166.2,505,163.5,503.8,161.3z"/>
						<path class="st12" d="M497.3,161.6c0.2-0.4,0.5-0.6,0.9-0.7c0.8-0.2,1.6,0.3,2.2,1.1c0.6,0.8,1.2,1.7,1.6,2.7
							c0.5,1,0.9,2.1,1.1,3.2c0,0.2-0.2,0.3-0.3,0.1c-0.4-1.8-1.4-3.5-2.4-4.9c-0.2-0.2-0.3-0.4-0.5-0.6c-0.2,0.9-0.2,1.9-0.1,2.8
							c0.2,1.1,0.6,2.1,1.1,3.1c0,0.1,0,0.2-0.1,0.1c-1.4-1.5-1.9-4.2-1.3-6.3c-0.3-0.3-0.6-0.4-1-0.5c-0.6,0-1.2,0.4-1.4,1.2
							c0,0.1-0.2,0.1-0.2-0.1C497,162.3,497.1,161.9,497.3,161.6z"/>
					</g>
					<g>
						<path d="M556.1,153.5c-0.6-1.3-1.9-2-3.2-2c-1.4,0-2.8,0.1-4.3,0.2c-2.5,0.1-5,0.1-7.5,0.4c-1.8,0.2-3.3,1-3.4,3.1
							c0,0,0,0.1,0,0.1c0,0,0,0,0,0c-0.8-0.4-1.6-0.5-2.5-0.2c-0.8,0.2-1.6,0.7-2.2,1.3c0,0,0,0,0,0c0-0.4-0.1-0.8-0.1-1.2
							c-0.3-2.1-1.9-2.9-3.8-3c-2.8-0.1-5.6,0-8.5,0c-1.7,0-3.4,0-5.2,0c-1.6,0-3.2,1-3.8,2.5c-0.3,0.9-0.4,1.8-0.3,2.7
							c0,0-0.1,0-0.1,0c-0.4,0.1-0.9,0.1-1.3,0.2c-0.8,0.1-1.6,0.2-2.4,0.3c-0.8,0.1-1.6,0.3-2.4,0.4c-0.4,0.1-0.9,0.1-1.2,0.3
							c-0.2,0.1-0.6,0.4-0.4,0.7c0.4,0.6,1.5,0.3,2.1,0.3c0.8-0.1,1.6-0.1,2.3-0.2c0.8-0.1,1.6-0.2,2.3-0.3c0.4-0.1,0.8-0.1,1.2-0.2
							c0,0,0.1,0,0.1,0c0.4,2.8,1,5.6,1.9,8.2c0.4,1.1,0.9,2.1,2,2.6c1.1,0.4,2.3,0.3,3.4,0.3c1.5,0,2.9-0.1,4.3-0.2
							c2.6-0.2,5.3-0.6,7.7-1.3c2.3-0.7,2.6-2.8,2.5-4.9c0-1.9-0.1-3.8-0.2-5.7c0.7-0.5,1.4-1,2.2-1.2c0.3-0.1,0.5-0.1,0.8-0.1
							c0.2,0,0.1,0,0.3,0c0.1,0,0.1,0,0.2,0c0,0,0.1,0,0.1,0c-0.1,0-0.1,0,0,0c0.1,0.1,0.2,0.1,0.3,0.2c0,0,0,0,0,0
							c0.1,0.1,0.1,0.1,0.2,0.2c0,0,0.1,0.1,0.1,0.1c-0.1-0.1,0.1,0.1,0.1,0.1c0,0.1,0.1,0.1,0,0c0.1,0.1,0.1,0.2,0.2,0.4
							c0,0,0.1,0.1,0.1,0.1c0,1.9,0.2,3.9,0.3,5.8c0.2,2.1,0.6,4.1,2.8,4.5c2.3,0.4,4.7,0.3,7,0.2c1.2-0.1,2.4-0.2,3.6-0.4
							c0.9-0.1,1.9-0.2,2.7-0.7c0.9-0.5,1.2-1.5,1.4-2.5c0.6-2.6,0.8-5.4,0.9-8.1C556.6,155.5,556.5,154.4,556.1,153.5z"/>
						<path class="st5" d="M531.8,165.1c-0.1,1.1-0.7,1.6-1.7,1.9c-4,1-8.5,1.5-12.7,1.3c-1.5-0.1-1.8-0.8-2.3-2
							c-0.4-1.1-0.8-2.3-1-3.4c-0.4-1.9-1-3.8-0.9-5.7c0.1-2.6,1.2-3,3.7-3c1.2,0,2.3,0,3.5,0c2.3,0,4.5,0,6.7,0
							c0.9,0,1.8-0.1,2.7,0c1.1,0.1,1.5,0.5,1.6,1.6c0.3,2.2,0.4,4.4,0.5,6.5C531.8,163.1,531.9,164.1,531.8,165.1z"/>
						<path class="st5" d="M554.9,160.7c-0.1,1.1-0.3,2.1-0.5,3.1c-0.3,1.2-0.5,1.8-1.7,2.1c-3.5,0.7-7.4,0.8-11.1,0.4
							c-1-0.1-1.6-0.5-1.8-1.6c-0.2-0.9-0.2-1.9-0.2-2.9c-0.1-2.1-0.2-4.3-0.1-6.4c0-1.1,0.4-1.4,1.4-1.6c0.8-0.2,1.7-0.1,2.5-0.2
							c2-0.1,3.9-0.2,5.8-0.3c1-0.1,1.9-0.1,2.8-0.2c1.9-0.1,2.8,0.2,3.1,2.4C555.4,157.4,555.1,159.1,554.9,160.7z"/>
					</g>
				</g>
			</g>
			<g>
				<g>
					<path class="st13" d="M457,235.2c0,3.7-3,6.6-6.6,6.6c-3.7,0-6.6-3-6.6-6.6c0-3.7,3-6.6,6.6-6.6C454,228.6,457,231.6,457,235.2
						z"/>
				</g>
			</g>
		</g>
	</g>
	<g>
		<path class="st10" d="M387.4,531.5c1.8,0,3.1,0.3,4.1,1.9c0.6,1,0.9,2.1,1,3.2c0.1,1-0.2,2.2,0.6,2.8c1.2,0.9,3.6,0.9,5,0.7
			c2.5-0.3,3.7-1.6,2.8-4c-0.9-2.3-2.8-4.2-5-5.3c-1.7-0.8-3.6-1.5-5.5-1.6c-0.8,0-1.5,0.2-2.1,0.8
			C387.8,530.3,386.9,531.1,387.4,531.5z"/>
		<path class="st10" d="M365,558.9c-4-1.3-11.2,13.5-12.9,16c-6.7,9.6-11.4,20.4-14.7,31.6c-4.4,15.1-8.9,30.4-7.1,46.3
			c1.1,10.3,7.7,17.8,18.8,16.7c5.3-0.6,15.5-1.4,19.8-4.4c2-1.4,2.1-3.2,0.4-5.6c-1.8-2.5-3-2-6-1.4c-5.7,1.1-10.5,2.6-15.4-1.7
			c-4.8-4.3-5.3-11.9-5.1-18c0.4-8.9,2.1-17.6,4.5-26.3c3-10.9,7.4-20.8,11.5-31.3c1.8-4.6,4.4-9.5,5.5-14.4c0.6-2.9,0-5.2,1-7.9
			C364.8,558.2,364.2,558.2,365,558.9z"/>
		<path class="st14" d="M344.4,666.1c-2.4-2.1-4.2-4.9-5.4-7.8c-2.8-6.6-3.2-14.1-3-21.2c0.2-7.9,1.4-15.7,2.7-23.5
			c1.1-6.5,2.4-13,4.1-19.4c0.6-2.4,1.4-4.8,2.1-7.1c-3.1,6.2-5.5,12.8-7.5,19.5c-4.4,15.1-8.9,30.4-7.1,46.3
			c1.1,10.3,7.7,17.8,18.8,16.7c0.3,0,0.7-0.1,1-0.1C348,668.7,346.1,667.6,344.4,666.1z"/>
		<g>
			<path class="st6" d="M441.6,664.9c-2.7,2.6-23,5.8-41.8,6.8c-3.9,0.2-7.8,0.3-11.4,0.3c-8.9,0-20,0.3-23.1-2.2
				c-7.4-6-25.5-108,5.8-125.9c7.2-4.1,24.2-6.5,30.7-6.2c0.8,0,1.6,0.1,2.3,0.2c20.7,2.4,32.3,25.6,37.3,59.5
				C448.2,642.8,446.3,660.3,441.6,664.9z"/>
			<path class="st15" d="M399.8,671.6c-3.9,0.2-7.8,0.3-11.4,0.3c-8.9,0-20,0.3-23.1-2.2c-7.4-6-25.5-108,5.8-125.9
				c3.2-1.8,8.3-3.3,13.5-4.4c2.6-0.5,5.3-0.9,7.7-1.2c3.8-0.5,7.2-0.7,9.5-0.6c0.8,0,1.6,0.1,2.3,0.2c-8,0.8-14.4,6.5-17.5,16.2
				C377.6,582.8,386.7,636.3,399.8,671.6z"/>
			<path class="st16" d="M392.3,538.1c-3,1.6-5.7,3.6-8,6.1c-5,5.6-8.5,12.7-10.7,19.8c-2.3,7.1-3.5,14.6-4,22.1
				c-0.5,7.9,0.3,15.8,0.8,23.7c0.5,8.9,2.1,17.5,3,26.3c0.1,0.6-1.9,1.2-2.5,0.8c-0.7,0.2-1.4,0.2-1.5-0.2
				c-1.3-5-1.7-10.4-2.3-15.5c-0.6-5-1.1-10.1-1.4-15.2c-0.9-15.5-0.3-31.7,5.3-46.4c2.7-7.1,6.6-14.5,12.4-19.5
				c0.3-0.3,0.6-0.5,1-0.8C387.2,538.9,389.8,538.4,392.3,538.1z"/>
		</g>
		<path class="st10" d="M429,575.1c-0.2-1.2-0.6-2.6-1.6-3.4c-1.1-0.9-2.8-0.8-4.1-0.8c-4.1,0-8.4,0.2-13,0.7
			c-2,0.2-4.1,0.3-6.2,0.8c-0.5,0.1-2.7,0.1-3.5,1.4c-0.4,0.6-0.1,3.3,0,5.5c0.2,2.5,0.3,4.7,1.5,5.1c0.5,0,0.9,0.2,1.4,0.2
			c0.5,0,1.2-0.1,1.7-0.2c1.2-0.1,2.3-0.2,3.5-0.3c2.2-0.2,4.4-0.5,6.5-0.7c4.1-0.5,7.9-1,11.7-1.5c0.9-0.1,1.8-0.4,2.1-1.4
			c0.2-0.6,0.2-1.3,0.2-1.9C429.3,577.5,429.2,576.3,429,575.1z"/>
		<path class="st3" d="M378.7,542.3c-1.5,0.1-0.2-8.6,1.1-10.4c2.1-2.9,6-3.8,9.4-4.1c3.9-0.4,11.9,3.6,11.8,8.7
			c-2.3-4.2-9.7-8.7-13.7-3.8c-1.8,2.1,0.1,5.5-1.1,7.2C384.6,542.2,380.2,542.2,378.7,542.3z"/>
		<g>
			<path class="st3" d="M451.6,666.7c-2.4,1.8-23.1,5.2-36.7,5.5c-4.9,0.1-8.9-0.2-10.9-1.1c-4.3-2-7-21.3-6.4-40.9
				c0.4-14.6,5.1-27.3,14.1-31.4c4.1-1.9,8.1-2.7,11.8-2.7c1.6,0,3.2,0.1,4.7,0.4c13.4,2.6,23.4,16.3,25.6,34
				C456.7,654.9,454.9,664.3,451.6,666.7z"/>
			<path class="st17" d="M428.2,596.5c-5.4,0.6-9.2,4.4-10.1,6.1c-5,9-6.3,20.3-6.6,30.7c-0.4,12.1,0,26.7,3.4,38.9
				c-4.9,0.1-8.9-0.2-10.9-1.1c-4.3-2-7-21.3-6.4-40.9c0.4-14.6,5.1-27.3,14.1-31.4c4.1-1.9,8.1-2.7,11.8-2.7
				C425.1,596,426.7,596.2,428.2,596.5z"/>
		</g>
		<path class="st10" d="M371.4,635.3c2.4,0,3.4,7.8,2.9,8.5c-0.6,0.8-3.7,1-4.4,0.5C369.1,643.7,369,635.3,371.4,635.3z"/>
	</g>
	<g>
		<g>
			<g>
				<polygon points="554.7,672 549.2,672 567.8,507 583.2,507 				"/>
				<polygon points="738.3,672 743.9,672 725.2,507 709.9,507 				"/>
				<polygon points="699.8,672 705.3,672 686.7,507 671.3,507 				"/>
				<polygon points="591.2,672 585.7,672 604.3,507 619.7,507 				"/>
			</g>
			<polygon class="st10" points="755.4,319.2 726.3,488.2 658.1,488.2 687.2,319.2 			"/>
			<polygon class="st18" points="747.1,319.2 718,488.2 658.1,488.2 687.2,319.2 			"/>
			<rect x="565.2" y="488.2" class="st10" width="161.1" height="22.8"/>
			<rect x="565.2" y="488.2" class="st18" width="57.8" height="22.8"/>
		</g>
		<g>
			<g>
				<defs>
					<path id="XMLID_14_" d="M520.1,568.2c0,0-29.1,5.8-22.3,12.5c6.8,6.8,45.6,13.3,47.4,10.7c1.9-2.6,7.6-21.8,7.6-21.8
						l-26.9-12.2L520.1,568.2z"/>
				</defs>
				<use xlink:href="#XMLID_14_"  style="overflow:visible;fill:#FFFFFF;"/>
				<clipPath id="XMLID_4_">
					<use xlink:href="#XMLID_14_"  style="overflow:visible;"/>
				</clipPath>
				<path class="st19" d="M537.3,586.4c3.4-2.5,7.1-5.1,11.3-5.6c0.8-0.1,1.7,0,2.1,0.6c0.2,0.3,0.2,0.8,0.2,1.2
					c-0.2,2.3-1.4,4.3-2.7,6.1c-1.3,1.9-2.8,3.7-4.7,5c-1.9,1.4-4.1,2.2-6.4,2.1c-1.7-0.1-5.8-1.5-5.7-3.8
					C531.4,590.2,535.8,587.5,537.3,586.4z"/>
				<path class="st19" d="M509.7,583.4c0.1,2.1,0,4.5-1.7,5.8c-1.7,1.4-4.3,0.9-6.3,0c-2.8-1.3-5.2-3.5-6.5-6.2
					c-1.3-2.8-1.6-6.1-0.3-8.9c0.5-1.1,1.1-2,1.9-2.9c1-1.2,2.1-2.4,3.5-3.1c1.3-0.6,3.3-0.9,4.4,0.2c1,1,1.8,3.2,2.4,4.5
					C508.5,576.1,509.4,579.7,509.7,583.4z"/>
				<path class="st20" d="M514.4,586.2c5.5,1.3,11,1.5,16.4,1.4c2.8-0.1,6.2-0.6,7-3.5c0.6-2.2-0.6-4.8-2-6.8
					c-2.3-3.4-5.4-6.4-8.8-8.5c-1.4-0.9-2.9-1.6-4.2-2.7c-1.3-1.1-2.5-2.6-2.7-4.3c-0.2-1.8,0.7-3.3,1.9-4.2
					c1.3-0.9,2.9-1.2,4.4-1.4c7-0.8,14.8,0.6,21,5.5c6.2,4.9,10.3,13.7,8.5,20.9c-1,3.8-3.5,6.8-6.3,9.1c-6.8,5.5-16,7.6-25.2,5.9
					c-6.3-1.2-12.6-4.3-18-8.7c-2.5-2.1-8.5-6-10.3-8.8c-2.7-4.3,4.2,0.7,5.6,1.6C505.2,584,510.5,585.3,514.4,586.2z"/>
			</g>
			<g>
				<defs>
					<path id="XMLID_13_" d="M558.8,585.1c0,0-24.4,17-15.4,20.4c8.9,3.5,47.1-6.1,47.7-9.2c0.7-3.1-1.8-23-1.8-23l-29.5-0.3
						L558.8,585.1z"/>
				</defs>
				<use xlink:href="#XMLID_13_"  style="overflow:visible;fill:#FFFFFF;"/>
				<clipPath id="XMLID_5_">
					<use xlink:href="#XMLID_13_"  style="overflow:visible;"/>
				</clipPath>
				<path class="st21" d="M581.9,594.9c2.1-3.7,4.4-7.5,8.1-9.6c0.7-0.4,1.6-0.7,2.2-0.3c0.3,0.2,0.5,0.6,0.6,1
					c0.7,2.2,0.4,4.5-0.1,6.7c-0.5,2.3-1.1,4.5-2.3,6.5c-1.2,2-2.9,3.7-5,4.5c-1.6,0.6-5.9,1-6.7-1.2
					C578,600.6,581,596.5,581.9,594.9z"/>
				<path class="st21" d="M555.4,603.2c1,1.9,1.8,4.1,0.8,6c-1,2-3.6,2.6-5.8,2.5c-3.1-0.1-6.1-1.1-8.5-3.1c-2.3-2-3.9-5-3.8-8
					c0-1.2,0.2-2.3,0.5-3.4c0.4-1.5,1-3,2-4.2c0.9-1,2.7-2.2,4.1-1.6c1.4,0.5,2.9,2.2,4,3.2C551.4,597,553.7,599.9,555.4,603.2z"/>
				<path class="st22" d="M560.8,603.8c5.5-1,10.7-3,15.6-5.3c2.6-1.2,5.4-3.1,5-6c-0.3-2.2-2.4-4.1-4.5-5.5
					c-3.5-2.2-7.5-3.7-11.5-4.2c-1.7-0.2-3.3-0.3-5-0.7c-1.6-0.5-3.3-1.4-4.2-2.8c-0.9-1.5-0.7-3.3,0.1-4.7c0.8-1.3,2.1-2.3,3.5-3.1
					c6-3.6,13.8-5.4,21.4-3.4c7.7,2,15,8.4,16.2,15.7c0.6,3.9-0.4,7.6-2.1,10.9c-4,7.8-11.6,13.4-20.8,15.5
					c-6.3,1.4-13.3,1.2-20-0.7c-3.2-0.9-10.2-2-13-3.9c-4.2-2.9,4.1-1,5.8-0.8C551.5,605.5,556.8,604.6,560.8,603.8z"/>
			</g>
			<g>
				<path class="st13" d="M689,443.9c0,0,8.4,40-15.9,40.6c-24.3,0.6-89.9,3.2-89.9,3.2l-31,90.6L515,564.8
					c0,0,26.7-99.9,36.8-108.2c10.1-8.2,74-13.3,86.3-13C650.4,443.9,689,443.9,689,443.9z"/>
				<path class="st23" d="M689,443.9c0,0,8.4,40-15.9,40.6c-24.3,0.6-89.9,3.2-89.9,3.2l-31,90.6L515,564.8
					c0,0,26.7-99.9,36.8-108.2c10.1-8.2,74-13.3,86.3-13C650.4,443.9,689,443.9,689,443.9z"/>
				<g>
					<polygon class="st24" points="513.6,566.7 551.5,580.1 557.9,568.5 516.2,553.2 					"/>
					<polygon class="st25" points="513.6,566.7 551.5,580.1 557.9,568.5 516.2,553.2 					"/>
					<path class="st26" d="M531.7,569.4c-3.1-2.8-6-5.9-8.3-9.3c-1.2-1.7-2.2-3.5-3.1-5.3l-4-1.5l-2.6,13.5l29.3,10.3
						C538.9,574.9,535.1,572.4,531.7,569.4z"/>
				</g>
			</g>
			<g>
				<g>
					<path class="st13" d="M710.4,445.5c0,0,8.8,42.4-16.5,43.1c-25.3,0.7-93.3,3.4-93.3,3.4l-7.2,91.5l-38.2-1.3
						c0,0,2.3-114.4,12.7-123.1c10.4-8.8,76.8-14.1,89.6-13.8C670.4,445.5,710.4,445.5,710.4,445.5z"/>
					<path class="st27" d="M583.4,582.2c-1.3-2.7-2.1-5.6-2.8-8.6c-0.7-3-1.4-6.1-2.1-9.2c-1.5-7.3-2.4-14.7-3-22
						c-0.5-6.4-1-12.9-1.5-19.3c-0.5-6.1-1-12.3-1.1-18.4c-0.1-12,1.3-24.3,8.3-34.3c5.7-8.3,13.2-15,21.5-20.5
						c-16,2.3-30.4,5.4-34.8,9.1c-10.4,8.8-12.7,123.1-12.7,123.1l28.7,1C583.8,582.8,583.6,582.5,583.4,582.2z"/>
					<path class="st27" d="M710.4,445.5c0,0-3.6,0-9,0c0,0.6,0,1.2-0.1,1.8c-0.2,2.6-0.5,5.3-1.1,7.9c-0.5,2.4-1.1,4.9-2.2,7.2
						c-2.3,4.5-6.5,7.8-10.7,10.4c-4.4,2.8-9.1,5.1-14.1,7c-10.5,3.9-21.7,5.9-32.8,7.1c-7.4,0.8-14.9,1.2-22.4,1.8
						c-3.6,0.3-7.3,0.7-10.9,1.3c-1.4,0.2-2.7,0.5-4.1,1c-0.5,0.2-1.4,0.4-1.8,0.9c7.6-0.3,68.8-2.7,92.5-3.3
						C719.2,487.9,710.4,445.5,710.4,445.5z"/>
					<g>
						<g>
							<path class="st24" d="M583.8,568.2C583.8,568.2,583.8,568.2,583.8,568.2c-0.2,0-0.4-0.2-0.4-0.4l0.2-2.2
								c0-0.2,0.2-0.4,0.4-0.3c0.2,0,0.4,0.2,0.3,0.4l-0.2,2.2C584.2,568.1,584,568.2,583.8,568.2z"/>
						</g>
						<g>
							<path class="st24" d="M584.3,561.5C584.3,561.5,584.3,561.5,584.3,561.5c-0.2,0-0.4-0.2-0.4-0.4l0.3-4.5
								c0-0.2,0.2-0.4,0.4-0.3c0.2,0,0.4,0.2,0.3,0.4l-0.3,4.5C584.7,561.4,584.5,561.5,584.3,561.5z M585,552.5
								C585,552.5,585,552.5,585,552.5c-0.2,0-0.4-0.2-0.4-0.4l0.4-4.5c0-0.2,0.2-0.4,0.4-0.3c0.2,0,0.4,0.2,0.3,0.4l-0.4,4.5
								C585.4,552.4,585.2,552.5,585,552.5z M585.7,543.5C585.7,543.5,585.7,543.5,585.7,543.5c-0.2,0-0.4-0.2-0.4-0.4
								c0.1-1.5,0.2-3,0.4-4.5c0-0.2,0.2-0.4,0.4-0.3c0.2,0,0.4,0.2,0.3,0.4c-0.1,1.5-0.2,3-0.4,4.5
								C586.1,543.3,585.9,543.5,585.7,543.5z M586.4,534.5C586.4,534.5,586.4,534.5,586.4,534.5c-0.2,0-0.4-0.2-0.4-0.4l0.4-4.5
								c0-0.2,0.2-0.4,0.4-0.3c0.2,0,0.4,0.2,0.3,0.4l-0.4,4.5C586.8,534.3,586.6,534.5,586.4,534.5z M587.2,525.5
								C587.2,525.5,587.2,525.5,587.2,525.5c-0.2,0-0.4-0.2-0.4-0.4l0.4-4.5c0-0.2,0.2-0.4,0.4-0.3c0.2,0,0.4,0.2,0.3,0.4l-0.4,4.5
								C587.5,525.3,587.4,525.5,587.2,525.5z M588,516.5C587.9,516.5,587.9,516.5,588,516.5c-0.2,0-0.4-0.2-0.4-0.4l0.4-4.5
								c0-0.2,0.2-0.4,0.4-0.3c0.2,0,0.4,0.2,0.3,0.4l-0.4,4.5C588.3,516.3,588.1,516.5,588,516.5z M588.8,507.5
								C588.8,507.5,588.7,507.5,588.8,507.5c-0.2,0-0.4-0.2-0.4-0.4c0.1-1.5,0.3-3,0.4-4.5c0-0.2,0.2-0.4,0.4-0.3
								c0.2,0,0.4,0.2,0.3,0.4c-0.1,1.5-0.3,3-0.4,4.5C589.1,507.3,589,507.5,588.8,507.5z M589.6,498.5
								C589.6,498.5,589.6,498.5,589.6,498.5c-0.2,0-0.4-0.2-0.4-0.4c0.2-1.5,0.3-3,0.5-4.5c0-0.2,0.2-0.3,0.4-0.3
								c0.2,0,0.3,0.2,0.3,0.4c-0.2,1.4-0.3,2.9-0.5,4.5C590,498.3,589.8,498.5,589.6,498.5z M590.6,489.5
								C590.6,489.5,590.5,489.5,590.6,489.5c-0.2,0-0.4-0.2-0.4-0.4c0.2-1.6,0.4-3.1,0.5-4.5c0-0.2,0.2-0.3,0.4-0.3
								c0.2,0,0.3,0.2,0.3,0.4c-0.2,1.4-0.3,2.9-0.5,4.5C590.9,489.4,590.8,489.5,590.6,489.5z M591.7,480.5
								C591.7,480.5,591.7,480.5,591.7,480.5c-0.3,0-0.4-0.2-0.4-0.4c0.3-2,0.6-3.5,0.8-4.5c0-0.2,0.2-0.3,0.4-0.3
								c0.2,0,0.3,0.2,0.3,0.4c-0.2,1-0.5,2.5-0.8,4.4C592,480.4,591.9,480.5,591.7,480.5z M595.8,474c-0.2,0-0.3-0.1-0.4-0.3
								c0-0.2,0.1-0.4,0.3-0.4c1.2-0.1,2.6-0.3,4.5-0.5c0.2,0,0.4,0.1,0.4,0.3c0,0.2-0.1,0.4-0.3,0.4
								C598.5,473.7,597,473.8,595.8,474C595.9,474,595.9,474,595.8,474z M604.9,473.1c-0.2,0-0.4-0.1-0.4-0.3
								c0-0.2,0.1-0.4,0.3-0.4c1.4-0.1,2.9-0.2,4.5-0.3c0.2,0,0.4,0.1,0.4,0.3c0,0.2-0.1,0.4-0.3,0.4
								C607.8,472.9,606.3,473,604.9,473.1C604.9,473.1,604.9,473.1,604.9,473.1z M613.9,472.5c-0.2,0-0.4-0.2-0.4-0.3
								c0-0.2,0.1-0.4,0.3-0.4c1.5-0.1,3-0.2,4.5-0.3c0.2,0,0.4,0.1,0.4,0.3c0,0.2-0.1,0.4-0.3,0.4
								C616.9,472.3,615.4,472.4,613.9,472.5C613.9,472.5,613.9,472.5,613.9,472.5z M622.9,472c-0.2,0-0.4-0.2-0.4-0.3
								c0-0.2,0.1-0.4,0.3-0.4l4.5-0.3c0.2,0,0.4,0.1,0.4,0.3c0,0.2-0.1,0.4-0.3,0.4L622.9,472C622.9,472,622.9,472,622.9,472z
								 M631.9,471.4c-0.2,0-0.4-0.2-0.4-0.3c0-0.2,0.1-0.4,0.3-0.4l4.5-0.3c0.2,0,0.4,0.1,0.4,0.3c0,0.2-0.1,0.4-0.3,0.4
								L631.9,471.4C631.9,471.4,631.9,471.4,631.9,471.4z M641,470.9c-0.2,0-0.4-0.2-0.4-0.3c0-0.2,0.1-0.4,0.3-0.4l4.5-0.3
								c0.2,0,0.4,0.1,0.4,0.3c0,0.2-0.1,0.4-0.3,0.4L641,470.9C641,470.9,641,470.9,641,470.9z M650,470.4c-0.2,0-0.4-0.2-0.4-0.3
								c0-0.2,0.1-0.4,0.3-0.4c1.5-0.1,3-0.2,4.5-0.3c0.2,0,0.4,0.1,0.4,0.3c0,0.2-0.1,0.4-0.3,0.4C653,470.2,651.5,470.3,650,470.4
								C650,470.4,650,470.4,650,470.4z M659,469.8c-0.2,0-0.4-0.2-0.4-0.3c0-0.2,0.1-0.4,0.3-0.4c1.6-0.1,3.1-0.2,4.5-0.3
								c0.2,0,0.4,0.1,0.4,0.3c0,0.2-0.1,0.4-0.3,0.4C662.1,469.6,660.6,469.7,659,469.8C659,469.8,659,469.8,659,469.8z M668,469.2
								c-0.2,0-0.4-0.1-0.4-0.3c0-0.2,0.1-0.4,0.3-0.4c1.6-0.1,3.1-0.3,4.5-0.4c0.2,0,0.4,0.1,0.4,0.3c0,0.2-0.1,0.4-0.3,0.4
								C671.2,468.9,669.7,469.1,668,469.2C668,469.2,668,469.2,668,469.2z M677,468.3c-0.2,0-0.3-0.1-0.4-0.3
								c0-0.2,0.1-0.4,0.3-0.4c2.4-0.3,3-0.5,3.2-0.6c0.3-0.2,0.6-0.4,0.9-0.6c0.2-0.1,0.4-0.1,0.5,0.1c0.1,0.2,0.1,0.4-0.1,0.5
								c-0.3,0.2-0.7,0.4-1,0.6C680.3,467.8,679.6,468,677,468.3C677.1,468.3,677.1,468.3,677,468.3z M684.8,464.2
								c-0.1,0-0.2,0-0.3-0.1c-0.1-0.1-0.1-0.4,0-0.5c1.1-1.1,2.1-2.2,2.9-3.4c0.1-0.2,0.3-0.2,0.5-0.1c0.2,0.1,0.2,0.3,0.1,0.5
								c-0.8,1.2-1.8,2.4-3,3.5C685,464.2,684.9,464.2,684.8,464.2z"/>
						</g>
						<g>
							<path class="st24" d="M689.7,457.3c0,0-0.1,0-0.1,0c-0.2-0.1-0.3-0.3-0.2-0.5c0.3-0.7,0.5-1.4,0.6-2.1c0-0.2,0.2-0.3,0.4-0.3
								c0.2,0,0.3,0.2,0.3,0.4c-0.2,0.7-0.4,1.5-0.7,2.2C689.9,457.2,689.8,457.3,689.7,457.3z"/>
						</g>
					</g>
				</g>
				<g>
					<polygon class="st24" points="554.5,583.2 594.6,584.4 597.2,571.5 552.8,569.6 					"/>
					<path class="st26" d="M572.5,580.3c-3.8-1.7-7.5-3.8-10.8-6.3c-1.6-1.3-3.2-2.6-4.6-4.1l-4.3-0.2l1.7,13.6l31,0.9
						C581,583.4,576.6,582.1,572.5,580.3z"/>
				</g>
			</g>
			<g>
				<path class="st28" d="M625.9,361c0,0-26,29.4-29.8,30.7c-3.8,1.2-44.2,8.1-44.2,8.1l-2.2,12.9c0,0,49,4.8,54.6,1.4
					c5.6-3.3,38.7-31.3,38.7-31.3L625.9,361z"/>
			</g>
			<path class="st3" d="M607.8,376.1c0,0,21.6-33.9,31-36.4c9.5-2.5,27.5,4.8,17.4,23.6c-10.1,18.8-22.9,32.3-22.9,32.3
				S613.9,393.3,607.8,376.1z"/>
			<path class="st14" d="M642.5,339.2c-2.6,3.4-4.8,7.2-6.9,10.9c-2.5,4.7-4.8,9.5-7,14.4c-2.2,4.9-4.3,10-6,15.1
				c-1.2,3.6-2.2,7.2-3,10.8c6.8,4.2,13.6,5.1,13.6,5.1s12.9-13.5,22.9-32.3C665.2,346.7,652.2,339.1,642.5,339.2z"/>
			<g>
				<defs>
					<path id="SVGID_1_" d="M713.2,398.4c-2.7-39.5-4.5-49.3-9.1-55.1c-4.6-5.7-21.5-8.2-33.4-8.7c-11.9-0.5-29.3,2.9-34.2,6.3
						c-5,3.4-7.9,17.8-7.2,35.7c0.7,15.5,3.9,32,3.8,39.2c-0.2,13.3-2.9,18.5-4.8,28.4c14.9,10.4,72.4,15.9,84.8,13.4
						C714.4,444.1,714.5,417.5,713.2,398.4z"/>
				</defs>
				<use xlink:href="#SVGID_1_"  style="overflow:visible;fill:#FFFFFF;"/>
				<clipPath id="SVGID_2_">
					<use xlink:href="#SVGID_1_"  style="overflow:visible;"/>
				</clipPath>
				<path class="st29" d="M650,343.7c-0.4,1.8,0.3,3.7,1.6,5.1c1.2,1.4,3.1,2,4.8,2.5c3.4,0.9,11-0.1,14.5-3.9
					c5.7,13.6,12.4,28.1,25.7,35.4c3.7,2,7.7,3.7,11.8,4.3c4.2,0.5,8.6-0.2,11.8-2.7c3.8-2.9,5.6-7.9,5.6-12.9
					c0-4.9-1.5-9.8-3.3-14.4c-3-8-6.8-15.9-13.1-21.7c-9.4-8.7-22.7-11.3-35-11.7c-10.3-0.3-20.6,0.6-30.1,3.9
					c-9.3,3.3-17.9,9.1-23.5,17.3c-7.2,10.6-9,25.2-4.6,37.9c0.7,0.1,1.8,0.2,2.4-0.1c6.6-4.2,10-12.1,14.1-19.1
					C637.4,356.2,643.4,349.2,650,343.7z"/>
				<path class="st30" d="M691,432.7c-1.7,5.4-3.7,10.9-7.8,14.9c-6.8,6.6-17.5,7-25.4,12.2c2,5.8,8.8,8,14.8,9.4
					c11.7,2.7,24.3,4.7,35.6,0.7c3.8-1.3,7.6-3.5,9.8-6.9c1.7-2.7,2.4-5.9,2.9-9.1c2.5-15.9,1.8-32.1,0.9-48.1
					c-1-16.9-2.1-33.7-3.6-50.6c-0.4-4.8-0.9-9.8-3.6-13.8c-1.6-2.4-4.1-4.4-6.8-5.4c-4.3-1.6-3.5,1.6-3.2,4.9
					c0.6,7.5,0.6,15.1,0.2,22.7c-0.8,15-3.2,29.8-6.8,44.4C696.1,416.2,693.7,424.5,691,432.7z"/>
				<path class="st30" d="M661.4,454.7c-6.3-2.3-12.3-4.3-18.1-7.5c-2.8-1.5-5.6-3.2-6.9-5.8c3.3-0.4,6.6,0,9.8,0.3
					c5.3,0.6,10.6,1.2,15.9,1.7c-5.6-1.9-10.8-5-15.9-7.8c-2.6-1.5-9.7-4.4-7.6-8.5c0.7-1.4,2.3-2,3.5-2.9c1.6-1.1,1.8-2.6,0.9-4.2
					c-1.2-2.2-3.6-3.6-5.6-4.9c-2.3-1.5-4.3-3.1-6.2-4.9c-1.1-1-2.1-2.2-3.1-3.4c-0.4,3.3,0.3,6.7,0.2,10c-0.1,3.3-1.2,6.6-2,9.9
					c-1.7,7.4-2,15-0.7,22.4c0.2,1.4,0.5,2.7,1.4,3.9c1,1.3,2.6,2.1,4.2,2.8c8.2,3.5,17.6,4.6,26.7,5.3
					C663.4,461.7,667.5,457,661.4,454.7z"/>
			</g>
			<g>
				<g>
					<path class="st31" d="M567,395c1.5-3.8,4.6-7.1,8.3-9.6c1.1-0.8,2.3-1.5,3.6-1.9c2.6-0.8,5.7-0.4,8.2,0.2
						c3.2,0.7,6.1,2,9.1,3.2c2.8,1.1,5.6,2.1,8.3,3.2c0.6,0.2,1.4,0.7,2.1,0.8c5.7,0.7,41,5.3,47.3,5.5c6.5-6.9,16.4-25.2,16.4-25.2
						s17.6,2.1,22.9,12.3c0.1-0.3-21.4,30.3-24.5,32c-3.2,1.7-17.6-0.7-35.1-5.2c-13.2-3.4-24.7-7-29.4-8.5
						c-0.7,0.2-1.5,0.3-2.3,0.4c-9.2,0.6-7.8-4.6-8.3-4.9l0.2-0.3c-1.8,0.6-3.6,1.2-5.4,1.8c-0.7,0.2-1.7,0.3-2-0.2
						c-0.2-0.5,0.1-1,0.5-1.5c1.2-1.5,2.5-2.9,3.9-4.2c-3,2-6,4-9,6c-0.6,0.4-1.4,0.8-2,0.4c-0.5-0.4-0.3-1.1,0-1.7
						c1.5-2.9,3.7-5.4,6.5-7.5c-2,1.5-4,3-6,4.6c-1.4,1-2.8,2.1-4.2,3c-1.3,0.8-3,1.6-4.4,1.1c-0.2-0.1-0.4-0.2-0.4-0.3
						c0-0.2,0-0.3,0.1-0.5c1.7-3.4,4.8-6.1,7.8-8.7c-2.7,2-5.3,4.1-8,6.1c-1,0.8-2.3,1.6-3.5,1.3c-0.3-0.1-0.5-0.2-0.7-0.4
						C566.7,395.9,566.8,395.4,567,395z"/>
					<path class="st31" d="M664.7,395.7c-2.1-2.4-3.4-5-4.4-7.7c5.1-7.8,10-16.8,10-16.8s17.6,2.1,22.9,12.3
						c0-0.2-8.9,12.6-16.1,22.1C672.1,403.9,667.6,399.1,664.7,395.7z"/>
					<path class="st32" d="M593.3,395.5c2.2,0.3,4,1.2,6.1,1.7c2,0.5,4.1,0.7,6.1,1c5.5,1,10.7,2.9,15.9,4.6
						c9.8,3.2,19.7,5.9,29.9,8.1c6.2,1.3,12.7,3.1,19.3,2.7c-0.9,1-1.6,1.7-2,1.9c-3.2,1.7-17.6-0.7-35.1-5.2
						c-13.2-3.4-24.7-7-29.4-8.5c-0.7,0.2-1.5,0.3-2.3,0.4c-9.2,0.6-7.8-4.6-8.3-4.9l0.2-0.3c-1.8,0.6-3.6,1.2-5.4,1.8
						c-0.5,0.1-1,0.2-1.5,0.1C588.9,397.6,591.1,396.6,593.3,395.5z"/>
				</g>
				<g>
					<g>
						<path class="st3" d="M657.9,385.3c1.6-2.3,14.8-22.8,19.3-30.5c2.4-4,5-8.1,9-11.1c2.8-2.2,10.7-7,16.4-0.4
							c0.3,0.3,0.6,0.7,0.9,1.1c0.3,0.4,0.6,0.9,0.8,1.3c3.8,6.6,2.7,15.6,0.4,23.1c-0.4,1.5-1,2.9-1.6,4.4
							c-4,9.2-10.6,20.7-17.2,29C677.2,401.6,662.3,393.7,657.9,385.3z"/>
					</g>
				</g>
				<g>
					<g>
						<path class="st14" d="M703.7,369.3c-1.7,2.3-3.4,4.5-5.2,6.6c-3.1,3.6-6.4,7-9.7,10.4c-3.3,3.3-6.7,6.5-10.2,9.5
							c-1.2,1.1-2.5,2.1-3.8,3.1c4,1.8,8.1,3.1,11.3,3.3c6.6-8.4,13.2-19.8,17.2-29c0.6-1.4,1.2-2.9,1.6-4.4c0.1-0.5,0.3-1,0.4-1.5
							C704.7,368,704.2,368.6,703.7,369.3z"/>
					</g>
				</g>
			</g>
			<g>
				<defs>
					<path id="XMLID_3_" d="M652.1,323.5l20.3-2.9l2.2,16.7c0.2,1.2-0.2,2.4-1,3.4c-1.7,2.1-5.4,5.5-11.5,6.2
						c-6.2,0.7-7-2.1-6.9-3.9c0.1-1.6-0.1-3.3-0.4-4.9L652.1,323.5z"/>
				</defs>
				<use xlink:href="#XMLID_3_"  style="overflow:visible;fill:#FFC9AF;"/>
				<clipPath id="XMLID_6_">
					<use xlink:href="#XMLID_3_"  style="overflow:visible;"/>
				</clipPath>
				<path class="st33" d="M648.4,335c16.7,0.6,23.9-15.4,23.4-16.1c-0.6-0.8-2.2-0.8-3.5-0.6c-9.1,1.6-21.9,5.7-23.3,9.1
					C643.6,330.8,646.1,334.9,648.4,335z"/>
			</g>
			<g>
				<path d="M687.1,305c-1.1,0-2.4-0.1-3.2-0.9c-0.8-0.7-0.9-1.9-1.4-2.8c-1.5-2.9-4.8-4.5-7.8-2.4c-7.3,5-3.9,13.5-3.2,14.9
					c0.9,1.9,3,3.7,5.1,4.4c0.7,0.2,2,0.5,2.2-0.5c0.1-0.6-0.6-1.1-0.6-1.7c1.4,0.6,2.6,1.2,4.2,1.2c1.8,0.1,4.8-0.5,5.8-2.2
					c1-1.8-0.9-2.6-2.3-3.4c2.3,0.1,4.6-3.1,5.5-4.8C692.4,304.5,688.5,305.1,687.1,305z"/>
				<g>
					<path d="M621.3,267.6c-0.7,1.2-1.1,2.5-1.3,3.9c-0.6,3.4-0.7,6.9-0.2,10.3c0.2,1.5,0.5,3,1.4,4.3c1.1,1.8,3.1,3,5,3.9
						c1.2,0.6,2.6,1.1,3.9,0.6c0.8-0.3,1.4-1.1,1.9-1.8c1.5-2.7,1-5.9,0.5-8.9c-0.5-2.9-0.9-5.8-2.1-8.4c-0.9-2-2.2-3.9-4-5.2
						C624.3,264.7,622.5,265.6,621.3,267.6z"/>
				</g>
				<g>
					<path class="st31" d="M653,329.9c-12.1,2.9-18.7,0-22.2-4.1c-0.3-0.3-0.5-0.6-0.8-0.9c-3.3-4.6-6.1-14.8-6.8-18.7
						c-0.1-0.3-0.1-0.7-0.2-1c0,0,0-0.1,0-0.1c-1-5.6-1.4-11.7-1.1-18.1c1-27,23.7-38.7,43-29.8c7.3,3.4,13.5,9.7,17.2,17.3
						c0.3,0.6,0.6,1.2,0.8,1.8C694.3,303.3,676,324.4,653,329.9z"/>
					<g class="st34">
						<g>
							<path class="st13" d="M633,324.3c-0.6,0.7-1.4,1.2-2.3,1.5c-0.3-0.3-0.5-0.6-0.8-0.9c-3.3-4.6-6.1-14.8-6.8-18.7
								c-0.1-0.3-0.1-0.7-0.2-1c1.6,0.2,3,1.1,4.1,2.2c3.8,3.5,6.2,8.2,6.7,13C633.9,321.7,633.9,323.1,633,324.3z"/>
							<path class="st13" d="M668.9,319.8c0.3-0.2,0.6-0.4,0.8-0.7c4.3-3.7,9.2-11.4,4.8-17.1c-2.2-2.8-6.2-3.6-9.4-2.4
								c-3.2,1.2-5.6,4-7.1,7.2c-1.2,2.4-1.9,5-1.7,7.7c0.2,2.7,1.5,5.4,3.7,6.8C662.9,323.1,666.4,321.7,668.9,319.8z"/>
						</g>
					</g>
				</g>
				<g>
					<path d="M694.4,282.2c-0.4,2.3-0.9,4.5-1.5,6.8c-0.2,0.8-1.2,6.1-2,6.3c-0.3,0.1-0.6,0.2-1,0.1c-0.7,0-1.3-0.4-1.8-0.9
						c-1-1-2-2.2-3.6-2c-2.4,0.3-4.2,5.7-6.6,5.8c-3,0.1-4.1-2.7-5-5.5c0.1-2.9-0.1-4.4,0.7-10.5c0-0.2,0-0.4,0.1-0.6
						c-0.1-0.3-0.3-0.5-0.4-0.7c-1.8-2.5-4.9-3.5-7.6-4.9c-1.8-0.9-3.2-2.3-4.7-3.6c-1.7-1.5-3.2-3.2-4.2-5.3c-0.9-2-1.4-4.3-2-6.3
						c-3.6,4.2-8.3,8-13.4,10.3c-3.5,1.7-7.5,3.2-11.3,4.2c-3,0.7-7.6,1.5-10.2-0.7c-2.4-2-2.3-4.9-1.7-7.7c0.9-4.2,3.8-7,7-9.7
						c8.9-7.3,20.2-12.2,31.8-12.7c2.5-0.1,5.1,0,7.7,0.3c3.4,0.4,6.6,1.2,9.8,2.5c1.1,0.4,2.1,0.9,3.2,1.4c0.8,0.4,1.6,0.9,2.4,1.3
						c2.7,1.6,5.2,3.7,7.3,6c3.2,3.4,5.7,7.6,6.7,12c0,0.1,0,0.1,0,0.2C695.2,272.9,695.1,277.6,694.4,282.2z"/>
					<path class="st10" d="M687.5,256.2c-2,0.7-5.1-1.4-6.7-1.7c-4.6-0.8,0.4,5.7-0.1,7.3c-0.5,1.8-2.8,1.9-4.4,1.7
						c-2.6-0.3-4-2-6.2-3c-1.7-0.7-3.3,0-3.8,1.8c-0.3,1.3,1.3,4.5,0.3,5.4c-1.4,1.3-5.1-0.8-6.1-1.7c-1.9-1.7-3.3-4.9-2.3-7.3
						c0.3-0.8,2.4-1,3.2-1.5c1.7-0.9,3.3-2,5.1-3c2.4-1.3,4.8-3,7.4-4.1c1.2-0.5,2.5-1,4-1.3c0.8,0.4,1.6,0.9,2.4,1.3
						C682.8,251.8,685.3,253.8,687.5,256.2z"/>
					<path class="st10" d="M674.6,247.4c-1.3,0.6-2.5,1.2-3.8,1.7c-2.9,1.1-5.7,2.3-8.4,3.8c-2.3,1.3-4.7,2.6-6.8,4.3
						c-1.2,1-2.7,3.4-3.7,3.4c-2.4,3.5-7.5,3.4-11,1.8c-2.1-0.9-2.6-2.4-0.3-3.6c2.5-1.3,5.7-1.3,8.3-2.5c2.1-1,4-2.6,3.2-5
						c-0.5-1.5-2.2-3.7,0.4-4.2c2-0.4,4.2,1.5,6.2,1.8c1.8,0.3,2.7,0,3.7-1.5c0.8-1.1,1.3-1.9,2.4-2.5
						C668.2,245.4,671.5,246.2,674.6,247.4z"/>
				</g>
				<g>
					<path d="M632.5,301.7c0.3,1.9-0.4,3.7-1.6,3.8c-1.2,0.2-2.5-1.2-2.8-3.2c-0.3-1.9,0.4-3.7,1.6-3.8
						C630.9,298.3,632.2,299.7,632.5,301.7z"/>
					<path d="M657.8,298.4c0.3,2-0.6,3.8-2,4c-1.4,0.2-2.8-1.2-3.1-3.3c-0.3-2,0.6-3.8,2-4C656.1,294.9,657.5,296.4,657.8,298.4z"/>
					<path class="st12" d="M638.9,314c2.8-0.2,5.6-0.8,8.1-2c2.5-1.2,4.7-2.8,6.7-4.7c0.2-0.2,0.5,0,0.3,0.3
						c-3.2,4.6-9.6,7.2-15.2,7C638.5,314.5,638.5,314,638.9,314z"/>
					<path class="st12" d="M639,309.3c-1.6-0.4-3.3-1.6-3.2-3.3c0-0.8,0.4-1.6,1.1-2c0.5-0.3,1.2-0.4,1.7-0.8
						c1.4-0.8,0.7-2.3,0.3-3.5c-0.6-1.7-1-3.7-2-5.3c-0.1-0.2-0.6-0.2-0.5,0.1c0.1,1,0.5,1.9,0.8,2.8c0.3,1,0.7,2,1,3
						c0.2,0.5,0.6,1.3,0.3,1.8c-0.2,0.3-0.6,0.4-0.9,0.6c-0.7,0.3-1.3,0.5-1.8,1c-0.9,1-1,2.5-0.5,3.6c0.7,1.3,2.1,2.1,3.6,2.2
						C639.2,309.7,639.2,309.3,639,309.3z"/>
					<path d="M632,285.9c0.4,1.1-1.2,1-3.6,1.6c-2.4,0.7-2.6,2.8-3.3,2.7c-0.7-0.1-0.6-3.8,2.5-5C630,284.2,631.7,285.2,632,285.9z"
						/>
					<path d="M647,283.3c-0.2,1,2.8,0.6,6,0.4c3.3-0.2,5.7,2.1,6,1.3c0.4-0.9-2-3.6-6-3.7C649.1,281.1,647.1,282.6,647,283.3z"/>
				</g>
				<g>
					<path class="st31" d="M678.7,294.5c1.7-4.5,5.4-8,10.5-6.4c1.7,0.5,2.9,2,3.5,3.6c0.6,1.6,0.6,3.4,0.3,5
						c-0.7,4.2-2.9,8.4-6.6,10.8c-1.4,0.9-3.2,1.5-4.8,1c-2.2-0.8-3.3-3.1-3.8-5.1C677.2,300.9,677.5,297.5,678.7,294.5z"/>
					<path class="st32" d="M684.5,290.4c-1.3,1.3-2,3-3.2,4.3c-0.9,0.9-1.4,2.2-2.9,0.7c0,0,0,0,0-0.1c0.1-0.3,0.2-0.5,0.3-0.8
						c1.6-4.2,4.9-7.6,9.6-6.7C686.9,288.4,685.6,289.3,684.5,290.4z"/>
					<path class="st12" d="M689.5,292.3c-0.5-0.3-1.1-0.5-1.7-0.4c-1.4,0.1-2.5,1-3.2,2.1c-0.8,1.1-1.3,2.4-1.7,3.7
						c-0.4,1.3-0.6,2.7-0.6,4.1c0,0.3,0.5,0.3,0.5,0c0-2.3,0.9-4.6,2.1-6.5c0.2-0.3,0.4-0.6,0.6-0.9c0.7,0.9,1.1,2.1,1.2,3.2
						c0.1,1.4-0.2,2.7-0.7,4c0,0.1,0.1,0.2,0.2,0.1c1.7-2.3,1.6-5.6-0.3-7.7c0.4-0.4,0.9-0.7,1.4-0.9c0.9-0.3,2.2,0,2.7,0.8
						c0.1,0.1,0.4,0,0.3-0.1C690.2,293.1,689.9,292.6,689.5,292.3z"/>
				</g>
			</g>
		</g>
	</g>
	<g>
		<g>
			<g>
				<polygon points="275.4,672 268.4,672 292.1,433.5 311.6,433.5 				"/>
				<polygon points="667.4,672 674.4,672 650.8,433.5 631.3,433.5 				"/>
			</g>
			<g>
				<rect x="281" y="412.8" class="st10" width="380.8" height="26.1"/>
				<rect x="281" y="412.8" class="st18" width="380.8" height="10.2"/>
				<rect x="272.7" y="405.3" class="st10" width="397.4" height="12.9"/>
			</g>
		</g>
		<g>
			<g>
				<path class="st2" d="M402.8,320.6h103.6c2,0,3.9,1.3,4.6,3.2l27.8,74.3H427.2l-27.4-73.2C399,322.8,400.6,320.6,402.8,320.6z"/>
				
					<rect x="423.4" y="398.1" transform="matrix(-1 -1.224647e-16 1.224647e-16 -1 1011.7874 803.9031)" class="st2" width="164.9" height="7.7"/>
				<path class="st3" d="M568.7,404.8c4.2-0.8,12.3-2.9,16.9-6.7h2.7v7.7h-25.7C564.7,405.5,566.7,405.2,568.7,404.8z"/>
				
					<rect x="423.4" y="398.1" transform="matrix(-1 -1.224647e-16 1.224647e-16 -1 958.533 803.9031)" class="st3" width="111.7" height="7.7"/>
				<g>
					<rect x="491.1" y="400.4" class="st35" width="32.1" height="3.3"/>
					<rect x="427.1" y="400.4" class="st35" width="7.4" height="3.3"/>
					<rect x="436.9" y="400.4" class="st35" width="7.4" height="3.3"/>
				</g>
				<path class="st3" d="M399,320.6h103.6c2,0,3.9,1.3,4.6,3.2l27.8,74.3H423.4L396,324.9C395.2,322.8,396.8,320.6,399,320.6z"/>
				<path class="st36" d="M399,320.6h87.3c-42.5,1.1-65.2,2.4-73.9,3.7c-8.7,1.3-14.6,3.2-13.1,9.7l-3.4-9
					C395.2,322.8,396.8,320.6,399,320.6z"/>
				<path class="st37" d="M422.9,391.9c22.9,6.2,52.1,4.7,70.4-12.1c9.7-8.9,14.4-22.4,14.2-35.4c-0.1-7.3-1.5-16.3-4.9-23.9h0
					c2,0,3.9,1.3,4.6,3.2l27.8,74.3H423.4l-2.5-6.7C421.6,391.6,422.2,391.7,422.9,391.9z"/>
				<g>
					<path class="st38" d="M526.2,402c0,1.2,1,2.1,2.1,2.1c1.2,0,2.1-1,2.1-2.1c0-1.2-1-2.1-2.1-2.1
						C527.2,399.8,526.2,400.8,526.2,402z"/>
					<path class="st35" d="M526.9,402c0,0.8,0.6,1.4,1.4,1.4s1.4-0.6,1.4-1.4c0-0.8-0.6-1.4-1.4-1.4S526.9,401.2,526.9,402z"/>
				</g>
			</g>
			<g>
				<g>
					<path class="st39" d="M477.7,373l-7.9-6.3c-0.7-0.6-1.7-0.9-2.4-0.7l-8.2,1.8c-2,0.4-4.1-1.8-3.7-3.7l1.9-8.1
						c0.2-0.8-0.1-1.7-0.7-2.4l-6.2-7.9c-1.5-1.9-0.5-4.2,1.6-3.9l9,1.3c0.9,0.1,1.6-0.2,2-0.8l4.3-6.7c1-1.6,3.8-0.8,4.7,1.3
						l3.7,8.9c0.4,0.9,1.1,1.6,1.9,1.9l8.9,3.8c2.1,0.9,2.9,3.7,1.3,4.7l-6.7,4.3c-0.6,0.4-1,1.2-0.8,2l1.2,9
						C481.8,373.6,479.5,374.5,477.7,373z"/>
					<path class="st6" d="M477.6,369.9l-8.5-6.8c-0.3-0.2-0.6-0.3-0.8-0.2l-8.8,1.9c-0.7,0.1-1.4-0.6-1.3-1.3l2-8.8
						c0.1-0.3,0-0.6-0.2-0.8l-6.7-8.5c-0.5-0.6-0.2-1.4,0.5-1.3l9.7,1.4c0.3,0,0.5-0.1,0.7-0.3l4.7-7.2c0.4-0.5,1.3-0.3,1.6,0.4
						l4,9.6c0.1,0.3,0.4,0.5,0.7,0.7l9.6,4.1c0.7,0.3,1,1.3,0.4,1.6l-7.3,4.6c-0.2,0.1-0.3,0.4-0.3,0.7l1.3,9.7
						C479,370,478.3,370.4,477.6,369.9z"/>
					<path class="st5" d="M472.1,358.5l-2.9-2.4c-0.1-0.1-0.2-0.1-0.3-0.1l-3.1,0.7c-0.2,0.1-0.5-0.2-0.4-0.4l0.7-3.1
						c0-0.1,0-0.2-0.1-0.3l-2.3-3c-0.2-0.2-0.1-0.5,0.2-0.5l3.4,0.5c0.1,0,0.2,0,0.2-0.1l1.6-2.5c0.1-0.2,0.4-0.1,0.6,0.2l1.4,3.3
						c0,0.1,0.1,0.2,0.2,0.2l3.3,1.4c0.3,0.1,0.3,0.4,0.2,0.6l-2.5,1.6c-0.1,0-0.1,0.1-0.1,0.2l0.4,3.4
						C472.6,358.6,472.3,358.7,472.1,358.5z"/>
				</g>
				<path class="st5" d="M446,373.7c2.3,8.1,9.9,14.4,17,14c7.1-0.4,11-7.3,8.6-15.4c-2.3-8.1-9.9-14.4-17-14
					C447.6,358.7,443.7,365.6,446,373.7z"/>
				<path class="st13" d="M448.4,373.6c1.9,6.6,8.1,11.8,13.9,11.5c5.8-0.3,9-5.9,7.1-12.6c-1.9-6.6-8.1-11.8-13.9-11.5
					C449.6,361.3,446.5,366.9,448.4,373.6z"/>
				<path class="st6" d="M466.8,372c-0.1-0.3-0.5-0.4-0.8-0.2c-1,0.8-2.1-1.2-2.6-1.8c-1-1.2-2-2.5-3-3.7c-0.4-0.5-1.4-0.2-1.5,0.4
					c-0.1,0.9-0.1,1.7,0.1,2.5c-0.1-0.2-0.3-0.4-0.4-0.6c-0.5-0.8-1.4-1.5-2.4-1.1c-1.1,0.4-1.1,1.6-1.1,2.6c0,2.4,0.6,4.7,1.3,6.9
					c0.2,0.6,0.4,1.1,0.6,1.7c0.2,0.5,0.3,1.1,0.5,1.6c0,0-0.1,0-0.1-0.1c-0.2-0.1-0.4-0.3-0.6-0.4c-0.4-0.3-0.7-0.7-1.1-1.1
					c-0.8-0.9-1.4-2-1.9-3.1c-0.4-0.9-1-2.4-0.3-3.3c0.3-0.4-0.2-1-0.6-0.6c-1.5,1.3-0.5,3.9,0.2,5.4c0.4,1,1.1,1.9,1.7,2.7
					c0.6,0.7,1.3,1.6,2.2,1.9c0.9,0.3,1.9,0,2-1c0.1-0.5-0.2-1.1-0.3-1.6c-0.2-0.7-0.4-1.3-0.5-2c-0.7-2.4-1.4-4.8-1.4-7.3
					c0-0.2,0-0.3,0-0.5l0,0c0.1,0.1,0.2,0.2,0.2,0.3c0.4,0.5,0.8,1.2,1.1,1.8c0.7,1.2,1.2,2.5,1.5,3.8c0.3,1,1.6,0.7,1.7-0.2
					c0.2-1.8-0.4-3.6-0.7-5.4c0.9,1.1,1.8,2.2,2.7,3.2c0.6,0.6,1.4,1.1,2.3,0.9C466.5,373.5,467.1,372.8,466.8,372z"/>
			</g>
		</g>
		<g>
			<g>
				<path class="st2" d="M368.5,342.6c-4.5-3.7-4.9-10.6-3.3-15.8c0.8-2.7,1.6-5.5,2-8.3c0.3-2.3,0.5-4.8-0.3-7
					c0.6,1,1.3,1.7,1.9,2.7c1,1.5,1.6,3.1,2.1,4.8c0.9,2.7,1.5,5.2,1.5,8.1c0,2.7-0.7,5.3-1.1,7.9c-0.3,1.8-0.5,3.5-1.1,5.2
					C370.1,340.7,369.2,343.2,368.5,342.6z"/>
				<path class="st2" d="M364.4,343c-5.4-2.2-9.3-5.8-11.2-10.8c-0.8-2.2-1.4-4.4-1.8-6.7c-0.2-1.1-0.5-2.3-0.5-3.4
					c0,0.6,0.6,1.2,1,1.6c0.9,1,2,1.8,3,2.7c1.1,1,2.2,1.9,3.4,2.7c1.3,0.9,2.7,1.7,3.9,2.8c2.3,2.1,4.3,4.8,5.1,7.9
					c0.3,1.1,0.2,2.6-0.3,3C366.5,343.3,365.4,343.4,364.4,343z"/>
				<path class="st2" d="M368.3,342.4c-0.8-1.2,0.5-3.6,1.2-4.6c1.7-2.4,4.3-4.3,6.9-5.7c2.8-1.5,6-2.6,9-3.6
					c1.3-0.5,2.7-0.9,3.8-1.6c0.6-0.4,1.5-1,1.7-1.8c0,3.4-2.4,6.3-4.5,8.7c-2.1,2.5-4.5,4.4-7.5,5.8c-1.8,0.8-3.6,1.6-5.4,2.2
					c-1.1,0.4-2.2,0.7-3.3,0.8C369.4,342.6,368.6,342.9,368.3,342.4z"/>
				<path class="st10" d="M388.8,304.1c-2.6,2.6-4.7,5.8-6.7,8.9c-2.1,3.3-4,6.7-5.8,10.2c-3.4,6.8-6.1,14.1-7.6,21.5
					c-0.1,0.3,0.4,0.4,0.5,0.1c2.3-7.3,4.8-14.4,8.3-21.2c1.6-3.3,3.5-6.5,5.5-9.6c2.1-3.2,4.4-6.2,6.5-9.4
					C389.6,304.2,389.1,303.8,388.8,304.1z"/>
				<path class="st10" d="M364.5,324.8c-1.8-6-4.3-12.4-8.8-16.9c-0.1-0.1-0.4,0.1-0.3,0.2c3.9,5.2,6.3,11.1,8,17.3
					c1.8,6.6,2.4,13.3,3.1,20c0,0.4,0.6,0.4,0.6,0C367.8,338.6,366.5,331.4,364.5,324.8z"/>
				<path class="st13" d="M354.1,313.2c-1.1,0-2.5-0.4-3.5-1c-0.8-0.6-1.2-1.5-1.5-2.4c-0.3-1.1-1-1.9-1.9-2.7c-1.2-1-2.5-1.8-4.1-2
					c-0.3,0-1.1,0-1.2-0.3c-0.1-0.5,1.2-1.2,1.5-1.4c1-0.5,2.3-0.8,3.5-0.8c0.8,0,1.7,0.5,2.5,0.4c-0.9-0.7-1.5-2.1-1.6-3.2
					c-0.1-1.1,0.3-3.2,1.5-3.6c0.9-0.3,0.9,1.1,1,1.6c0.2,1,0.6,2.6,1.4,3.3c0-1.6,0.9-3.9,2.5-4.4c0.1,1-0.7,2.1-0.3,3.2
					c0.3-0.6,0.7-1.1,1.3-1.6c0.3-0.3,0.9-0.9,1.4-0.9c-0.3,0.7-0.3,1.6-0.4,2.4c-0.1,1.6,1.2,2.2,2.2,3.3c0.5,0.6,1.2,1,1.6,1.7
					c0.5,1.1,0.5,2.5,0.4,3.6C360,310.4,358.3,313.1,354.1,313.2z"/>
				<path class="st13" d="M397.4,299.5c0.2-0.1,0.6-0.1,0.6-0.3c0.2-0.7-2-1-2.3-1.1c-0.8-0.2-1.6-0.1-2.3,0c-0.3,0-0.7,0.3-0.8,0
					c-0.1-0.2,0.4-1.1,0.5-1.3c0.2-0.3,0.5-0.8,0.4-1.2c-1-0.2-2.8,0.8-3,1.8c-0.5-0.8-0.7-1.8-1.3-2.5c-0.3-0.4-0.7-0.8-1.1-1
					c-0.2-0.1-0.9-0.2-1.1,0c-0.2,0.2-0.2,0.7-0.1,0.9c0.1,0.9,0.2,1.8,0,2.6c-0.3,1.1-1.1,1.3-1.9,1.8c-0.6,0.3-1.1,0.8-1.5,1.3
					c-0.6,0.7-1.1,1.7-1.1,2.7c-0.1,1.9,1,3.7,2.4,4.8c0.4,0.3,0.8,0.6,1.3,0.8c2.8,1.5,6.9,2.1,8.6-1.3c0.7-1.5,0.7-3,0.6-4.6
					c0-0.3,0-0.5,0.1-0.8c0.2-0.4,0.8-0.6,1.2-0.7c0.4-0.1,1-0.2,0.4-0.6c-0.5-0.3-1.2-0.1-1.7-0.1c0.4-0.4,0.8-0.7,1.3-1
					C396.7,299.7,397,299.6,397.4,299.5z"/>
			</g>
			<g>
				<path class="st6" d="M390.2,377c0-7-3.4-11.8-8.6-14.5c-3.5-1.8-5.8-5.2-5.8-9.1v-11.2h-14.4v11.2c0,3.9-2.3,7.3-5.8,9.1
					c-5.2,2.7-8.6,7.5-8.6,14.5c0,4.7,1.5,9.6,4,13.9c2.3,3.9,7.7,8.4,7.7,12.9v0h19.6l0,0c0-4.5,5.5-9,7.7-12.9
					C388.7,386.6,390.2,381.7,390.2,377z"/>
				<path class="st24" d="M376.8,344.1h-16.3c-0.3,0-0.6-0.3-0.6-0.6v-1.4c0-0.3,0.3-0.6,0.6-0.6h16.3c0.3,0,0.6,0.3,0.6,0.6v1.4
					C377.4,343.8,377.1,344.1,376.8,344.1z"/>
				<path class="st24" d="M379.3,402.9H358c-0.3,0-0.6,0.3-0.6,0.6v1.4c0,0.3,0.3,0.6,0.6,0.6h21.3c0.3,0,0.6-0.3,0.6-0.6v-1.4
					C379.9,403.2,379.6,402.9,379.3,402.9z"/>
			</g>
		</g>
	</g>
</g>
</svg>
